<?xml version="1.0" encoding="iso-8859-1"?>
<!-- Generator: Adobe Illustrator 19.0.0, SVG Export Plug-In . SVG Version: 6.00 Build 0)  -->
<svg version="1.1" id="Capa_1" xmlns="http://www.w3.org/2000/svg" xmlns:xlink="http://www.w3.org/1999/xlink" x="0px" y="0px"
	 viewBox="0 0 512.001 512.001" style="enable-background:new 0 0 512.001 512.001;" xml:space="preserve">
<g>
	<g>
		<path d="M476.52,242.81c-1.211-3.962-5.405-6.189-9.364-4.981c-3.962,1.211-6.191,5.403-4.982,9.364
			c16.6,54.322,27.551,115.224,32.684,181.417h-43.682c-6.333-77.113-20.198-136.202-33.605-177.972V141.079
			c9.717,16.865,21.734,40.958,33.508,73.045c1.427,3.888,5.732,5.882,9.625,4.457c3.888-1.427,5.884-5.736,4.457-9.625
			c-18.524-50.485-37.854-82.113-48.395-97.26c-2.268-13.843-9.227-26.121-19.185-35.16c4.268-7.062,6.728-15.333,6.728-24.169
			c0-25.841-21.024-46.864-46.867-46.864H154.557c-25.845,0-46.87,21.023-46.87,46.864c0,8.837,2.461,17.108,6.729,24.17
			c-9.957,9.038-16.916,21.317-19.184,35.158c-10.543,15.151-29.871,46.778-48.395,97.261
			C20.156,281.665,4.402,366.961,0.013,462.478c-0.16,3.533,1.148,7.028,3.599,9.599c2.447,2.557,5.881,4.023,9.419,4.023h47.51
			c6.958,0,12.676-5.444,13.017-12.397c3.053-62.847,11.235-114.841,20.87-156.398v155.673c0,5.494,3.502,10.172,8.385,11.957
			v14.063c0,9.649,7.851,17.5,17.5,17.5h271.375c9.649,0,17.5-7.851,17.5-17.5v-14.063c4.884-1.785,8.385-6.463,8.385-11.957
			V307.305c9.635,41.558,17.817,93.552,20.87,156.4c0.341,6.95,6.058,12.395,13.015,12.395h47.512c3.538,0,6.972-1.467,9.428-4.033
			c2.441-2.561,3.75-6.056,3.59-9.595C508.268,381.564,496.335,307.659,476.52,242.81z M58.668,461.1H15.094
			c0.28-5.87,0.604-11.7,0.972-17.49h43.638C59.318,449.351,58.967,455.17,58.668,461.1z M94.427,250.639
			c-13.406,41.77-27.271,100.86-33.604,177.971H17.128c6.198-80.052,20.888-152.073,43.791-214.487
			c11.773-32.085,23.791-56.177,33.508-73.043V250.639z M154.557,20.502h202.886c17.571,0,31.867,14.294,31.867,31.864
			c0,10.788-5.388,20.339-13.612,26.108c2.632-3.896,4.44-7.799,5.434-11.719c3.749-14.8-0.353-24.188-4.455-29.459
			c-5.611-7.209-14.947-11.344-25.615-11.344c-12.077,0-24.012,5.017-33.048,13.507c-0.033-0.001-0.066-0.005-0.1-0.005h-123.82
			c-5.322-5.052-11.755-8.918-18.805-11.206c-10.085-3.273-20.666-3.018-29.029,0.694c-5.268,2.34-21.946,11.979-15.401,37.813
			c0.992,3.916,2.798,7.814,5.426,11.706c-8.216-5.77-13.597-15.316-13.597-26.096C122.687,34.796,136.984,20.502,154.557,20.502z
			 M223.979,104.431l11.54,15.778c-38.604-14.17-85.044-37.104-90.12-57.137c-1.801-7.108-2.058-16.42,6.948-20.42
			c10.188-4.523,27.207-0.192,36.307,13.469c0.061,0.091,0.124,0.181,0.188,0.27l13.191,18.036
			c2.445,3.342,7.138,4.071,10.481,1.626c3.343-2.445,4.071-7.138,1.626-10.481l-8.131-11.116h28.142v21.193
			c0,4.143,3.357,7.5,7.5,7.5h28.695c4.142,0,7.5-3.357,7.5-7.5V54.456h28.131l-49.983,68.341l-19.908-27.221
			c-2.445-3.343-7.139-4.072-10.481-1.626C222.262,96.395,221.534,101.088,223.979,104.431z M249.152,68.149V54.456h13.695v13.693
			H249.152z M323.147,56.392c0.048-0.066,0.095-0.133,0.141-0.2c6.318-9.256,17.22-15.237,27.773-15.237
			c6.008,0,11.029,2.025,13.777,5.557c3.709,4.763,3,11.635,1.752,16.561c-5.076,20.033-51.515,42.967-90.119,57.137L323.147,56.392
			z M109.427,121.553c0-13.258,5.674-25.202,14.705-33.577c8.194,7.012,18.819,11.261,30.425,11.261h3.683
			c10.184,7.086,23.154,14.209,39.012,21.432c13.992,6.373,27.58,11.579,37.885,15.258v195.075c0,4.143,3.357,7.5,7.5,7.5
			s7.5-3.357,7.5-7.5v-189.98c1.871,0.599,2.994,0.94,3.206,1.005c0.719,0.218,1.45,0.323,2.174,0.323c0.16,0,0.796,0,0.957,0
			c0.724,0,1.455-0.105,2.174-0.323c0.212-0.064,1.34-0.408,3.216-1.008v319.699h-11.727v-92.716c0-4.143-3.357-7.5-7.5-7.5
			s-7.5,3.357-7.5,7.5v92.716h-125.71V121.553z M394.187,488.997c0,1.355-1.145,2.5-2.5,2.5H120.312c-1.355,0-2.5-1.145-2.5-2.5
			v-13.279h276.375V488.997z M402.572,460.717H276.863V135.923c10.304-3.679,23.888-8.884,37.875-15.255
			c15.857-7.223,28.828-14.346,39.012-21.432h3.693c11.604,0,22.229-4.249,30.423-11.261c9.032,8.375,14.706,20.32,14.706,33.578
			V460.717z M453.331,461.1c-0.299-5.931-0.65-11.749-1.036-17.49h43.622c0.368,5.796,0.707,11.617,0.987,17.49H453.331z"/>
	</g>
</g>
<g>
	<g>
		<path d="M156.146,316.461h-23.541c-6.893,0-12.5,5.607-12.5,12.5v78.041c0,6.893,5.607,12.5,12.5,12.5h23.541
			c6.893,0,12.5-5.607,12.5-12.5v-78.041C168.646,322.069,163.039,316.461,156.146,316.461z M153.646,404.502h-18.541v-73.041
			h18.541V404.502z"/>
	</g>
</g>
<g>
	<g>
		<path d="M379.394,316.461h-23.541c-6.893,0-12.5,5.607-12.5,12.5v78.041c0,6.893,5.607,12.5,12.5,12.5h23.541
			c6.893,0,12.5-5.607,12.5-12.5v-78.041C391.894,322.069,386.287,316.461,379.394,316.461z M376.894,404.502h-18.541v-73.041
			h18.541V404.502z"/>
	</g>
</g>
<g>
	<g>
		<path d="M301.999,165.502c-10.752,0-19.5,8.748-19.5,19.5c0,10.752,8.748,19.5,19.5,19.5s19.5-8.748,19.5-19.5
			C321.499,174.25,312.751,165.502,301.999,165.502z M301.999,189.502c-2.481,0-4.5-2.019-4.5-4.5c0-2.481,2.019-4.5,4.5-4.5
			c2.481,0,4.5,2.019,4.5,4.5C306.499,187.483,304.481,189.502,301.999,189.502z"/>
	</g>
</g>
<g>
	<g>
		<path d="M301.999,239.502c-10.752,0-19.5,8.748-19.5,19.5s8.748,19.5,19.5,19.5s19.5-8.748,19.5-19.5
			S312.751,239.502,301.999,239.502z M301.999,263.502c-2.481,0-4.5-2.019-4.5-4.5c0-2.481,2.019-4.5,4.5-4.5
			c2.481,0,4.5,2.019,4.5,4.5C306.499,261.484,304.481,263.502,301.999,263.502z"/>
	</g>
</g>
<g>
	<g>
		<path d="M301.999,313.502c-10.752,0-19.5,8.748-19.5,19.5s8.748,19.5,19.5,19.5s19.5-8.748,19.5-19.5
			S312.751,313.502,301.999,313.502z M301.999,337.502c-2.481,0-4.5-2.019-4.5-4.5c0-2.481,2.019-4.5,4.5-4.5
			c2.481,0,4.5,2.019,4.5,4.5C306.499,335.484,304.481,337.502,301.999,337.502z"/>
	</g>
</g>
<g>
	<g>
		<path d="M301.999,387.502c-10.752,0-19.5,8.748-19.5,19.5s8.748,19.5,19.5,19.5s19.5-8.748,19.5-19.5
			S312.751,387.502,301.999,387.502z M301.999,411.502c-2.481,0-4.5-2.019-4.5-4.5c0-2.481,2.019-4.5,4.5-4.5
			c2.481,0,4.5,2.019,4.5,4.5C306.499,409.484,304.481,411.502,301.999,411.502z"/>
	</g>
</g>
<g>
</g>
<g>
</g>
<g>
</g>
<g>
</g>
<g>
</g>
<g>
</g>
<g>
</g>
<g>
</g>
<g>
</g>
<g>
</g>
<g>
</g>
<g>
</g>
<g>
</g>
<g>
</g>
<g>
</g>
</svg>
