<?xml version="1.0" encoding="utf-8"?>
<!-- Generator: Adobe Illustrator 19.1.0, SVG Export Plug-In . SVG Version: 6.00 Build 0)  -->
<svg version="1.1" id="Слой_1" xmlns="http://www.w3.org/2000/svg" xmlns:xlink="http://www.w3.org/1999/xlink" x="0px" y="0px"
	 viewBox="-187 372.8 221 96.1" style="enable-background:new -187 372.8 221 96.1;" xml:space="preserve">
<style type="text/css">
	.st0{fill:#FFFFFF;}
</style>
<g id="ECO-logo">
	<path class="st0" d="M-33,391.1h0.4c0.1,0,0.3,0,0.4,0.1c0.1,0.1,0.2,0.2,0.3,0.3l2.6,4.6h1.9l-2.4-4.2c-0.1-0.3-0.3-0.5-0.5-0.7
		c-0.2-0.2-0.4-0.5-0.6-0.7l-0.3-0.3l0.1-0.1c0.2-0.2,0.4-0.4,0.6-0.6c0.2-0.2,0.3-0.5,0.5-0.7l2.2-3.7h-1.7l-2.4,4.1
		c-0.1,0.2-0.2,0.3-0.4,0.5c-0.2,0.1-0.3,0.3-0.5,0.3l-0.1,0.1v-5h-1.6v11.1h1.6L-33,391.1L-33,391.1z"/>
	<path class="st0" d="M-43.6,407.4l0.4-0.9h0.1l-0.1,1c0,0.2,0,0.4,0,0.7s0,0.4,0,0.7v5.7h1.6v-11.1h-1l-3.4,5.7
		c-0.1,0.2-0.3,0.5-0.4,0.7c-0.1,0.2-0.2,0.5-0.3,0.7l-0.4,1.1h-0.1l0.1-1.1c0-0.2,0-0.3,0-0.5c0-0.2,0-0.3,0-0.5v-6.1h-1.6v11.1h1
		l3.2-5.3c0.2-0.3,0.4-0.6,0.5-0.9C-43.9,408.1-43.7,407.8-43.6,407.4z"/>
	<path class="st0" d="M9.2,403.4c-0.4-0.1-0.8-0.1-1.3-0.1c-1.2,0-2.2,0.3-2.9,0.9c-0.7,0.6-1.1,1.6-1.1,2.9c0,0.9,0.2,1.5,0.6,2
		c0.4,0.5,0.9,0.8,1.5,0.9l-0.4,0.5c-0.1,0.1-0.2,0.2-0.3,0.4c-0.1,0.1-0.2,0.2-0.2,0.4l-1.8,3.4h1.9l2-3.8c0.1-0.1,0.2-0.3,0.3-0.4
		c0.1-0.1,0.3-0.2,0.5-0.2l0.8-0.2v4.6h1.6v-11C10,403.5,9.6,403.5,9.2,403.4z M8.8,409l-0.9,0c-0.7,0-1.3-0.1-1.7-0.5
		c-0.4-0.4-0.6-0.9-0.6-1.6c0-0.8,0.2-1.3,0.6-1.7c0.4-0.4,0.9-0.6,1.6-0.6c0.1,0,0.3,0,0.5,0c0.2,0,0.4,0.1,0.5,0.2L8.8,409
		L8.8,409z"/>
	<path class="st0" d="M-12.5,391.5v4.6h1.6v-11c-0.4-0.1-0.8-0.2-1.2-0.2s-0.8-0.1-1.3-0.1c-1.2,0-2.2,0.3-2.9,0.9
		c-0.7,0.6-1.1,1.5-1.1,2.9c0,0.9,0.2,1.5,0.6,2c0.4,0.5,0.9,0.8,1.5,0.9l-0.4,0.5c-0.1,0.1-0.2,0.2-0.3,0.3
		c-0.1,0.1-0.2,0.2-0.2,0.4l-1.8,3.4h1.9l2-3.8c0.1-0.1,0.2-0.3,0.3-0.4c0.1-0.1,0.3-0.2,0.5-0.2L-12.5,391.5z M-15.1,390.1
		c-0.4-0.4-0.6-0.9-0.6-1.6c0-0.8,0.2-1.3,0.6-1.7c0.4-0.4,0.9-0.6,1.6-0.6c0.1,0,0.3,0,0.5,0c0.2,0,0.4,0.1,0.5,0.2v4.1l-0.9,0
		C-14.1,390.6-14.7,390.4-15.1,390.1z"/>
	<path class="st0" d="M-84.8,386.2c-0.6-1-1.6-1.4-3-1.4c-1.3,0-2.2,0.5-2.9,1.4c-0.7,0.9-1,2.4-1,4.4c0,1.9,0.3,3.4,1,4.4
		c0.6,1,1.6,1.4,3,1.4c1.3,0,2.2-0.5,2.9-1.4c0.7-0.9,1-2.4,1-4.4C-83.9,388.6-84.2,387.2-84.8,386.2z M-86.1,393.9
		c-0.4,0.7-1,1-1.7,1c-0.4,0-0.8-0.1-1.1-0.3c-0.3-0.2-0.5-0.5-0.7-0.9c-0.2-0.4-0.3-0.8-0.4-1.4s-0.1-1.1-0.1-1.8
		c0-1.5,0.2-2.6,0.6-3.3c0.4-0.7,1-1,1.7-1c0.4,0,0.8,0.1,1.1,0.3c0.3,0.2,0.5,0.5,0.7,0.9c0.2,0.4,0.3,0.8,0.4,1.4
		c0.1,0.5,0.1,1.1,0.1,1.8C-85.5,392.1-85.7,393.2-86.1,393.9z"/>
	<path class="st0" d="M-79,396.3c1.3,0,2.3-0.3,3-0.8c0.7-0.5,1-1.3,1-2.5c0-0.8-0.1-1.3-0.4-1.8c-0.3-0.4-0.8-0.7-1.5-0.9v-0.1
		c0.6-0.2,1-0.6,1.2-1.1c0.2-0.5,0.4-1,0.4-1.5c0-0.9-0.3-1.6-0.8-2c-0.5-0.4-1.4-0.7-2.6-0.7c-0.7,0-1.3,0-1.7,0.1
		s-0.9,0.1-1.3,0.1v11c0.4,0,0.8,0.1,1.3,0.1C-80,396.3-79.5,396.3-79,396.3z M-80.2,386.4c0.2,0,0.4,0,0.6,0c0.2,0,0.5,0,0.8,0
		c0.7,0,1.1,0.1,1.4,0.4c0.3,0.3,0.4,0.7,0.4,1.3c0,0.2,0,0.5-0.1,0.7c-0.1,0.2-0.2,0.4-0.4,0.6c-0.2,0.2-0.3,0.3-0.5,0.4
		c-0.2,0.1-0.4,0.1-0.6,0.1h-1.6L-80.2,386.4L-80.2,386.4z M-80.2,391h1.5c0.8,0,1.3,0.2,1.6,0.5c0.3,0.3,0.4,0.8,0.4,1.3
		c0,0.7-0.2,1.2-0.5,1.5c-0.3,0.3-0.9,0.5-1.6,0.5c-0.3,0-0.5,0-0.7,0c-0.2,0-0.4,0-0.6-0.1L-80.2,391L-80.2,391z"/>
	<path class="st0" d="M-69.4,396.4c1.3,0,2.2-0.5,2.9-1.4s1-2.4,1-4.4c0-1.9-0.3-3.4-1-4.4c-0.6-1-1.6-1.4-3-1.4
		c-1.3,0-2.2,0.5-2.9,1.4c-0.7,0.9-1,2.4-1,4.4c0,1.9,0.3,3.4,1,4.4C-71.8,395.9-70.8,396.4-69.4,396.4z M-71.1,387.3
		c0.4-0.7,1-1,1.7-1c0.4,0,0.8,0.1,1.1,0.3c0.3,0.2,0.5,0.5,0.7,0.9s0.3,0.8,0.4,1.4c0.1,0.5,0.1,1.1,0.1,1.8c0,1.5-0.2,2.6-0.6,3.3
		s-1,1-1.7,1c-0.4,0-0.8-0.1-1.1-0.3s-0.5-0.5-0.7-0.9c-0.2-0.4-0.3-0.8-0.4-1.4c-0.1-0.5-0.1-1.1-0.1-1.8
		C-71.7,389.1-71.5,388-71.1,387.3z"/>
	<path class="st0" d="M-63.8,396.2c0.6,0,1-0.3,1.3-0.8c0.3-0.5,0.6-1.3,0.8-2.2c0.2-0.9,0.3-1.9,0.4-3.1c0.1-1.2,0.1-2.4,0.2-3.6
		h2.4v9.6h1.6v-11.1h-5.5c0,2.3-0.1,4.1-0.2,5.4c-0.1,1.3-0.3,2.3-0.4,2.9s-0.4,1-0.6,1.2c-0.2,0.1-0.5,0.1-0.8,0.1l-0.2,1.4
		c0.1,0.1,0.3,0.1,0.5,0.2C-64.2,396.2-64,396.2-63.8,396.2z"/>
	<path class="st0" d="M-52.5,391.1c-0.1,0.2-0.3,0.4-0.4,0.6l-2.4,4.4h1.8l2.2-4.3c0.1-0.2,0.2-0.3,0.4-0.5c0.2-0.1,0.3-0.2,0.5-0.3
		l0.2-0.1v5.2h1.6v-5h0.4c0.1,0,0.3,0,0.4,0.1c0.1,0.1,0.2,0.2,0.3,0.3l2.3,4.6h1.8l-2.1-4.1c-0.1-0.3-0.3-0.5-0.5-0.8
		c-0.2-0.3-0.4-0.5-0.6-0.7l-0.2-0.2l0.2-0.2c0.2-0.2,0.3-0.3,0.4-0.5c0.1-0.2,0.3-0.4,0.4-0.6l2-3.9h-1.7l-2,4.2
		c-0.1,0.2-0.2,0.3-0.3,0.5c-0.1,0.1-0.3,0.2-0.5,0.3l-0.3,0.1v-5h-1.6v4.8h-0.5c-0.1,0-0.3,0-0.4-0.1s-0.2-0.2-0.3-0.3l-2.1-4.4
		h-1.7l1.8,3.8c0.1,0.2,0.3,0.5,0.4,0.7s0.3,0.4,0.5,0.6l0.3,0.3l-0.1,0.1C-52.3,390.7-52.4,390.9-52.5,391.1z"/>
	<path class="st0" d="M-42,394.8c0.3,0.5,0.7,0.9,1.2,1.2c0.5,0.3,1.1,0.4,1.8,0.4c0.5,0,1-0.1,1.5-0.2c0.5-0.1,0.9-0.3,1.3-0.6
		l-0.5-1.3c-0.2,0.2-0.5,0.3-0.8,0.5c-0.3,0.1-0.7,0.2-1.1,0.2c-0.5,0-0.9-0.1-1.2-0.3c-0.3-0.2-0.6-0.5-0.8-0.9
		c-0.2-0.4-0.4-0.9-0.4-1.4s-0.1-1.1-0.1-1.7c0-1.5,0.2-2.6,0.6-3.3c0.4-0.7,1-1,1.8-1c0.7,0,1.3,0.2,1.9,0.5l0.4-1.4
		c-0.3-0.2-0.6-0.3-1.1-0.4c-0.4-0.1-0.9-0.2-1.5-0.2c-1.3,0-2.2,0.5-2.9,1.5c-0.7,1-1,2.4-1,4.3c0,0.9,0.1,1.7,0.2,2.4
		C-42.5,393.7-42.3,394.3-42,394.8z"/>
	<path class="st0" d="M-21,394.9L-21,394.9l0.5,1.3h1.2c-0.1-0.4-0.2-0.9-0.2-1.4c0-0.5-0.1-1-0.1-1.6c0-0.8,0-1.5,0.1-2.4
		c0-0.8,0.1-1.7,0.1-2.6c0-0.4,0-0.9-0.1-1.3c-0.1-0.4-0.2-0.8-0.4-1.1c-0.2-0.3-0.5-0.6-0.9-0.8c-0.4-0.2-0.9-0.3-1.5-0.3
		c-0.7,0-1.3,0.1-1.9,0.2c-0.6,0.1-1.1,0.4-1.6,0.6l0.5,1.3c0.3-0.2,0.7-0.4,1.2-0.5s0.9-0.2,1.3-0.2c0.7,0,1.1,0.2,1.4,0.5
		c0.2,0.3,0.4,0.9,0.4,1.8c0,0.4,0,0.8-0.1,1.2c-0.2,0-0.3,0-0.5,0s-0.3,0-0.4,0c-0.7,0-1.3,0.1-1.8,0.2c-0.5,0.1-1,0.3-1.4,0.6
		c-0.4,0.3-0.7,0.6-0.9,1c-0.2,0.4-0.3,1-0.3,1.6c0,1,0.3,1.7,0.8,2.3c0.5,0.6,1.2,0.8,1.9,0.8c0.7,0,1.3-0.1,1.7-0.4
		C-21.6,395.6-21.3,395.2-21,394.9z M-21.8,394.4c-0.3,0.3-0.8,0.4-1.4,0.4c-0.5,0-0.8-0.2-1.1-0.5s-0.4-0.8-0.4-1.4
		c0-0.4,0.1-0.7,0.2-1s0.4-0.4,0.6-0.6c0.3-0.1,0.6-0.2,0.9-0.3c0.3-0.1,0.7-0.1,1-0.1c0.1,0,0.3,0,0.4,0c0.1,0,0.3,0,0.4,0v2.3
		C-21.2,393.8-21.5,394.1-21.8,394.4z"/>
	<path class="st0" d="M-97.5,412.2c-0.4,0.4-0.8,0.8-1.2,1c-0.4,0.2-0.9,0.3-1.4,0.3c-0.5,0-0.9,0-1.4-0.1c-0.4-0.1-0.8-0.2-1.1-0.4
		l-0.4,1.4c0.3,0.2,0.7,0.3,1.2,0.4s1,0.1,1.6,0.1c0.8,0,1.5-0.1,2.2-0.4s1.2-0.7,1.7-1.3c0.5-0.6,0.9-1.4,1.2-2.4
		c0.3-1,0.4-2.2,0.4-3.6c0-1.4-0.1-2.6-0.4-3.5c-0.3-1-0.6-1.8-1.1-2.4c-0.5-0.6-1-1.1-1.6-1.3s-1.3-0.4-2.1-0.4
		c-0.6,0-1.2,0.1-1.7,0.2c-0.5,0.1-1,0.3-1.4,0.6l0.5,1.3c0.3-0.2,0.7-0.3,1.1-0.5c0.4-0.1,0.9-0.2,1.4-0.2c1.1,0,2,0.4,2.6,1.3
		c0.7,0.9,1.1,2.2,1.1,4h-4.9v1.4h4.9c0,1-0.2,1.9-0.4,2.6C-96.9,411.1-97.2,411.7-97.5,412.2z"/>
	<path class="st0" d="M-90.8,409.7h0.4c0.1,0,0.3,0,0.4,0.1c0.1,0.1,0.2,0.2,0.3,0.3l2.6,4.6h1.9l-2.4-4.2c-0.1-0.3-0.3-0.5-0.5-0.7
		c-0.2-0.2-0.4-0.5-0.6-0.7l-0.3-0.3l0.1-0.1c0.2-0.2,0.4-0.4,0.6-0.6c0.2-0.2,0.3-0.5,0.5-0.7l2.2-3.7h-1.7l-2.4,4.1
		c-0.1,0.2-0.2,0.3-0.4,0.5s-0.3,0.3-0.5,0.3l-0.1,0.1v-5h-1.6v11.1h1.6L-90.8,409.7L-90.8,409.7z"/>
	<path class="st0" d="M-9.1,409.7c-0.2-0.2-0.4-0.5-0.6-0.7l-0.3-0.3l0.1-0.1c0.2-0.2,0.4-0.4,0.6-0.6c0.2-0.2,0.3-0.5,0.5-0.7
		l2.2-3.7h-1.7l-2.4,4.1c-0.1,0.2-0.2,0.3-0.4,0.5c-0.2,0.1-0.3,0.3-0.5,0.3l-0.1,0.1v-5h-1.6v11.1h1.6v-5h0.4c0.1,0,0.3,0,0.4,0.1
		s0.2,0.2,0.3,0.3l2.6,4.6h1.9l-2.4-4.2C-8.8,410.2-9,409.9-9.1,409.7z"/>
	<path class="st0" d="M-80.3,414.9c1.3,0,2.2-0.5,2.9-1.4s1-2.4,1-4.4c0-1.9-0.3-3.4-1-4.4c-0.6-1-1.6-1.4-3-1.4
		c-1.3,0-2.2,0.5-2.9,1.4c-0.7,0.9-1,2.4-1,4.4c0,2,0.3,3.4,1,4.4C-82.6,414.4-81.6,414.9-80.3,414.9z M-82,405.8c0.4-0.7,1-1,1.7-1
		c0.4,0,0.8,0.1,1.1,0.3c0.3,0.2,0.5,0.5,0.7,0.9c0.2,0.4,0.3,0.8,0.4,1.4c0.1,0.5,0.1,1.1,0.1,1.8c0,1.5-0.2,2.6-0.6,3.3
		c-0.4,0.7-1,1-1.7,1c-0.4,0-0.8-0.1-1.1-0.3c-0.3-0.2-0.5-0.5-0.7-0.9c-0.2-0.4-0.3-0.8-0.4-1.4c-0.1-0.5-0.1-1.1-0.1-1.8
		C-82.6,407.6-82.4,406.5-82,405.8z"/>
	<path class="st0" d="M-69.3,405v9.6h1.6v-11.1h-5.5c0,2.3-0.1,4.1-0.2,5.4c-0.1,1.3-0.3,2.3-0.4,3c-0.2,0.6-0.4,1-0.6,1.2
		c-0.2,0.1-0.5,0.1-0.8,0.1l-0.2,1.4c0.1,0.1,0.3,0.1,0.5,0.2s0.4,0,0.6,0c0.6,0,1-0.3,1.4-0.8c0.3-0.5,0.6-1.3,0.8-2.2
		c0.2-0.9,0.3-1.9,0.4-3.1c0.1-1.2,0.1-2.4,0.2-3.6H-69.3z"/>
	<path class="st0" d="M-58.7,413.5c0.7-0.9,1-2.4,1-4.4c0-1.9-0.3-3.4-1-4.4c-0.6-1-1.6-1.4-3-1.4c-1.3,0-2.2,0.5-2.9,1.4
		c-0.7,0.9-1,2.4-1,4.4c0,2,0.3,3.4,1,4.4c0.6,1,1.6,1.4,3,1.4C-60.3,414.9-59.3,414.4-58.7,413.5z M-63.4,412.2
		c-0.2-0.4-0.3-0.8-0.4-1.4c-0.1-0.5-0.1-1.1-0.1-1.8c0-1.5,0.2-2.6,0.6-3.3s1-1,1.7-1c0.4,0,0.8,0.1,1.1,0.3
		c0.3,0.2,0.5,0.5,0.7,0.9c0.2,0.4,0.3,0.8,0.4,1.4c0.1,0.5,0.1,1.1,0.1,1.8c0,1.5-0.2,2.6-0.6,3.3c-0.4,0.7-1,1-1.7,1
		c-0.4,0-0.8-0.1-1.1-0.3C-62.9,412.9-63.2,412.6-63.4,412.2z"/>
	<polygon class="st0" points="-50.4,403.6 -55.7,403.6 -55.7,414.6 -54.1,414.6 -54.1,405 -50.4,405 	"/>
	<path class="st0" d="M-34.5,414.6h1.6v-11.1h-1.6v5c-0.2,0.2-0.4,0.3-0.8,0.4c-0.3,0.1-0.7,0.2-1.3,0.2c-0.3,0-0.6-0.1-0.8-0.2
		c-0.2-0.1-0.3-0.3-0.4-0.5c-0.1-0.2-0.2-0.5-0.2-0.8c0-0.3-0.1-0.6-0.1-1v-3.2h-1.6v3.7c0,0.6,0.1,1.2,0.2,1.6
		c0.1,0.4,0.3,0.8,0.5,1c0.2,0.3,0.5,0.4,0.9,0.5c0.3,0.1,0.7,0.2,1.2,0.2c0.6,0,1.1-0.1,1.5-0.2s0.7-0.3,0.8-0.4L-34.5,414.6
		L-34.5,414.6z"/>
	<path class="st0" d="M-24.5,404.1c-0.3-0.3-0.7-0.5-1.1-0.6s-0.8-0.2-1.2-0.2c-1.3,0-2.3,0.5-2.9,1.5c-0.7,1-1,2.4-1,4.3
		c0,0.9,0.1,1.7,0.2,2.4c0.2,0.7,0.4,1.3,0.7,1.8c0.3,0.5,0.8,0.9,1.3,1.2c0.5,0.3,1.1,0.4,1.8,0.4c0.6,0,1.2-0.1,1.7-0.3
		c0.5-0.2,1-0.4,1.4-0.8l-0.6-1.2c-0.2,0.2-0.5,0.4-0.9,0.5c-0.4,0.1-0.8,0.2-1.2,0.2c-0.5,0-0.9-0.1-1.3-0.3s-0.6-0.5-0.9-0.8
		c-0.2-0.4-0.4-0.8-0.5-1.3s-0.2-1.1-0.2-1.7h5.6c0-0.3,0.1-0.6,0.1-0.9s0-0.6,0-0.8c0-0.9-0.1-1.6-0.3-2.2
		C-24,404.8-24.2,404.4-24.5,404.1z M-25,408h-4.2c0.1-1.1,0.3-1.9,0.7-2.4s0.9-0.8,1.6-0.8c0.6,0,1.1,0.3,1.4,0.8
		C-25.1,406-25,406.8-25,408z"/>
	<path class="st0" d="M-16.3,413.3c-0.3,0.1-0.7,0.2-1.1,0.2c-0.5,0-0.9-0.1-1.2-0.3c-0.3-0.2-0.6-0.5-0.8-0.9
		c-0.2-0.4-0.4-0.9-0.4-1.4c-0.1-0.5-0.1-1.1-0.1-1.7c0-1.5,0.2-2.6,0.6-3.3c0.4-0.7,1-1.1,1.8-1.1c0.7,0,1.3,0.2,1.9,0.5l0.4-1.4
		c-0.3-0.2-0.6-0.3-1.1-0.4c-0.4-0.1-0.9-0.2-1.5-0.2c-1.3,0-2.2,0.5-2.9,1.5c-0.7,1-1,2.4-1,4.3c0,0.9,0.1,1.7,0.2,2.4
		c0.1,0.7,0.4,1.3,0.7,1.8c0.3,0.5,0.7,0.9,1.2,1.2c0.5,0.3,1.1,0.4,1.8,0.4c0.5,0,1-0.1,1.5-0.2c0.5-0.1,0.9-0.3,1.3-0.6l-0.5-1.3
		C-15.7,413-16,413.1-16.3,413.3z"/>
	<path class="st0" d="M1.6,411.8c0-0.8,0-1.6,0.1-2.4c0-0.8,0.1-1.7,0.1-2.6c0-0.4,0-0.9-0.1-1.3c-0.1-0.4-0.2-0.8-0.4-1.1
		c-0.2-0.3-0.5-0.6-0.9-0.8s-0.9-0.3-1.5-0.3c-0.7,0-1.3,0.1-1.9,0.2c-0.6,0.1-1.1,0.4-1.6,0.6l0.5,1.3c0.3-0.2,0.7-0.4,1.2-0.5
		s0.9-0.2,1.3-0.2c0.7,0,1.1,0.2,1.4,0.5c0.2,0.3,0.4,0.9,0.4,1.8c0,0.4,0,0.8-0.1,1.2c-0.2,0-0.3,0-0.5,0c-0.1,0-0.3,0-0.4,0
		c-0.7,0-1.3,0.1-1.8,0.2s-1,0.3-1.4,0.6c-0.4,0.3-0.7,0.6-0.9,1c-0.2,0.4-0.3,1-0.3,1.6c0,1,0.3,1.7,0.8,2.3
		c0.5,0.6,1.2,0.8,1.9,0.8c0.7,0,1.3-0.1,1.7-0.4s0.7-0.6,1-1h0.1l0.4,1.3h1.2c-0.1-0.4-0.2-0.9-0.2-1.4
		C1.6,412.8,1.6,412.3,1.6,411.8z M0.1,411.9c-0.1,0.4-0.4,0.7-0.7,1c-0.3,0.3-0.8,0.4-1.4,0.4c-0.5,0-0.8-0.2-1.1-0.5
		c-0.3-0.3-0.4-0.8-0.4-1.4c0-0.4,0.1-0.7,0.2-1c0.2-0.3,0.4-0.4,0.6-0.6c0.3-0.1,0.6-0.3,0.9-0.3c0.3-0.1,0.7-0.1,1-0.1
		c0.1,0,0.3,0,0.4,0c0.1,0,0.3,0,0.4,0V411.9z"/>
	<path class="st0" d="M-89.1,421.8c-1.3,0-2.2,0.5-2.9,1.4s-1,2.4-1,4.4c0,1.9,0.3,3.4,1,4.3c0.6,1,1.6,1.4,3,1.4
		c1.2,0,2.2-0.5,2.9-1.4s1-2.4,1-4.4c0-1.9-0.3-3.4-1-4.3C-86.8,422.3-87.8,421.8-89.1,421.8z M-87.4,430.9c-0.4,0.7-1,1-1.7,1
		c-0.4,0-0.8-0.1-1.1-0.3c-0.3-0.2-0.5-0.5-0.7-0.9c-0.2-0.4-0.3-0.8-0.4-1.4c-0.1-0.5-0.1-1.1-0.1-1.8c0-1.5,0.2-2.6,0.6-3.3
		c0.4-0.7,1-1,1.7-1c0.4,0,0.8,0.1,1.1,0.3c0.3,0.2,0.5,0.5,0.7,0.9s0.3,0.8,0.4,1.4c0.1,0.5,0.1,1.1,0.1,1.7
		C-86.8,429.1-87,430.2-87.4,430.9z"/>
	<path class="st0" d="M-78.1,426.6c0,0.1-0.1,0.2-0.1,0.2s-0.1,0.2-0.1,0.2l-0.4,1.2h0l-0.3-0.9c-0.1-0.2-0.1-0.3-0.2-0.5
		c-0.1-0.2-0.1-0.3-0.2-0.5l-2.2-4.3h-1.6v11h1.4V427c0-0.2,0-0.3,0-0.5c0-0.2,0-0.3,0-0.5l-0.1-1.6h0.1l0.5,1.4
		c0,0.1,0.1,0.3,0.2,0.4c0.1,0.1,0.1,0.3,0.2,0.4l1.9,3.8h0.6l1.9-4c0-0.1,0.1-0.2,0.1-0.3c0-0.1,0.1-0.2,0.1-0.3l0.6-1.6h0.1
		l-0.1,1.6c0,0.2,0,0.3,0,0.5c0,0.2,0,0.3,0,0.5v6.1h1.6v-11H-76L-78.1,426.6z"/>
	<polygon class="st0" points="-71.9,433.1 -70.4,433.1 -70.4,423.5 -66.7,423.5 -66.7,433.1 -65.1,433.1 -65.1,422.1 -71.9,422.1 	
		"/>
	<path class="st0" d="M-56.3,430.2c0-0.7,0-1.5,0.1-2.4c0-0.8,0.1-1.7,0.1-2.6c0-0.4,0-0.9-0.1-1.3c-0.1-0.4-0.2-0.8-0.4-1.1
		s-0.5-0.6-0.9-0.7c-0.4-0.2-0.9-0.3-1.5-0.3c-0.7,0-1.3,0.1-1.9,0.2s-1.1,0.4-1.5,0.6l0.5,1.3c0.3-0.2,0.7-0.3,1.2-0.5
		c0.5-0.1,0.9-0.2,1.3-0.2c0.7,0,1.1,0.2,1.4,0.5c0.2,0.3,0.4,0.9,0.4,1.8c0,0.4,0,0.8-0.1,1.2c-0.2,0-0.3,0-0.5,0s-0.3,0-0.4,0
		c-0.7,0-1.2,0.1-1.8,0.2c-0.5,0.1-1,0.3-1.4,0.6c-0.4,0.3-0.7,0.6-0.9,1s-0.3,1-0.3,1.6c0,1,0.3,1.7,0.8,2.3
		c0.5,0.5,1.1,0.8,1.9,0.8c0.7,0,1.3-0.1,1.7-0.4c0.4-0.3,0.7-0.6,1-1h0.1l0.4,1.3h1.2c-0.1-0.4-0.2-0.9-0.2-1.4
		C-56.3,431.3-56.3,430.8-56.3,430.2z M-57.8,430.4c-0.1,0.4-0.4,0.7-0.7,1c-0.3,0.3-0.8,0.4-1.4,0.4c-0.4,0-0.8-0.2-1.1-0.5
		s-0.4-0.8-0.4-1.4c0-0.4,0.1-0.7,0.2-0.9s0.4-0.4,0.6-0.6c0.3-0.1,0.6-0.2,0.9-0.3c0.3-0.1,0.7-0.1,1-0.1c0.1,0,0.3,0,0.4,0
		c0.1,0,0.3,0,0.4,0L-57.8,430.4L-57.8,430.4z"/>
	<polygon class="st0" points="-48.3,426.7 -52.1,426.7 -52.1,422.1 -53.7,422.1 -53.7,433.1 -52.1,433.1 -52.1,428.2 -48.3,428.2 
		-48.3,433.1 -46.7,433.1 -46.7,422.1 -48.3,422.1 	"/>
	<path class="st0" d="M-41.8,427.7c-0.1,0.2-0.3,0.5-0.4,0.7c-0.1,0.2-0.2,0.5-0.3,0.7l-0.4,1.1H-43l0.1-1.1c0-0.2,0-0.3,0-0.5
		c0-0.2,0-0.3,0-0.5v-6h-1.6v11h1l3.2-5.2c0.2-0.3,0.4-0.6,0.5-0.9c0.2-0.3,0.3-0.6,0.4-1l0.4-0.9h0.1l-0.1,1c0,0.2,0,0.4,0,0.6
		c0,0.2,0,0.4,0,0.6v5.7h1.6v-11h-1L-41.8,427.7z"/>
	<path class="st0" d="M-30.8,421.8c-1.2,0-2.2,0.3-2.9,0.9c-0.7,0.6-1.1,1.5-1.1,2.9c0,0.9,0.2,1.5,0.6,2c0.4,0.5,0.9,0.8,1.5,0.9
		l-0.4,0.5c-0.1,0.1-0.2,0.2-0.3,0.3c-0.1,0.1-0.2,0.2-0.2,0.4l-1.8,3.4h1.9l2-3.8c0.1-0.1,0.2-0.3,0.3-0.4c0.1-0.1,0.3-0.2,0.5-0.2
		l0.8-0.2v4.5h1.6v-10.9c-0.4-0.1-0.8-0.2-1.2-0.2C-29.9,421.8-30.3,421.8-30.8,421.8z M-29.9,427.5l-0.9,0c-0.7,0-1.3-0.1-1.7-0.5
		c-0.4-0.4-0.6-0.9-0.6-1.6c0-0.7,0.2-1.3,0.6-1.7c0.4-0.4,0.9-0.5,1.6-0.5c0.1,0,0.3,0,0.5,0c0.2,0,0.4,0.1,0.5,0.2L-29.9,427.5
		L-29.9,427.5z"/>
	<path class="st0" d="M-148.1,413.1c-1.5-1.5-3.9-1.5-5.4,0l-12.9,12.9c-1.5,1.5-1.5,3.9,0,5.4l12.9,12.9c1.5,1.5,3.9,1.5,5.4,0
		l12.9-12.9c1.5-1.5,1.5-3.9,0-5.4L-148.1,413.1z M-159.5,433.6l-3.3-4.2h2.6c0-6.1,4.7-10,9.3-10c5.1,0,8,3.9,8,6.2
		c-3.1-3.6-9.7-2.5-9.8,3.8h2.9l-3.3,4.2l-3.2,4.2L-159.5,433.6z M-142,430.3c0,6-3.8,8.6-7.5,8.6c-2.4,0-4.6-1.1-5.1-3.3
		c0.8,0.9,2.5,1.3,3.5,1.3c3.6,0,4.6-3.4,4.6-6.6h-1.7l1.9-2.5l1.9-2.4l1.9,2.4l1.9,2.5L-142,430.3L-142,430.3z"/>
	<path class="st0" d="M-128.5,393.5c-1.5-1.5-3.9-1.5-5.4,0l-12.9,12.9c-1.5,1.5-1.5,3.9,0,5.4l12.9,12.9c1.5,1.5,3.9,1.5,5.4,0
		l12.9-12.9c1.5-1.5,1.5-3.9,0-5.4L-128.5,393.5z M-131.4,418.5c-4.2,0-7.5-3.4-7.5-7.5h3.6c0,2.2,1.8,3.9,3.9,3.9
		c2.2,0,3.9-1.8,3.9-3.9h3.6C-123.9,415.1-127.3,418.5-131.4,418.5z M-121.6,411c0-2.2-1.8-3.9-3.9-3.9c-2.2,0-3.9,1.8-3.9,3.9h-3.6
		c0-2.2-1.7-3.9-3.9-3.9c-2.2,0-3.9,1.8-3.9,3.9h-3.6c0-4.2,3.4-7.5,7.5-7.5c2.3,0,4.3,1,5.7,2.6c1.4-1.6,3.4-2.6,5.7-2.6
		c4.2,0,7.5,3.4,7.5,7.5C-118,411-121.6,411-121.6,411z"/>
	<path class="st0" d="M-153.5,405.1c1.5,1.5,3.9,1.5,5.4,0l12.9-12.9c1.5-1.5,1.5-3.9,0-5.4l-12.9-12.9c-1.5-1.5-3.9-1.5-5.4,0
		l-12.9,12.9c-1.5,1.5-1.5,3.9,0,5.4L-153.5,405.1z M-157.1,397.6l-1.8-1.8l2.6-2.6l1.8,1.8L-157.1,397.6z M-149.5,399.6h-2.5V396
		h2.5V399.6z M-144.5,397.6l-2.6-2.6l1.8-1.8l2.6,2.6L-144.5,397.6z M-140.7,390.8h-3.7v-2.5h3.7V390.8z M-144.5,381.5l1.8,1.8
		l-2.6,2.6l-1.8-1.8L-144.5,381.5z M-152,379.4h2.5v3.7h-2.5V379.4z M-150.8,385.4c2.3,0,4.1,1.9,4.1,4.1c0,2.3-1.8,4.1-4.1,4.1
		c-2.3,0-4.1-1.8-4.1-4.1C-154.9,387.3-153.1,385.4-150.8,385.4z M-157.1,381.5l2.6,2.6l-1.8,1.8l-2.6-2.6L-157.1,381.5z
		 M-160.9,388.3h3.7v2.5h-3.7V388.3z"/>
	<path class="st0" d="M-154.7,406.4l-12.9-12.9c-1.5-1.5-3.9-1.5-5.4,0l-12.9,12.9c-1.5,1.5-1.5,3.9,0,5.4l12.9,12.9
		c1.5,1.5,3.9,1.5,5.4,0l12.9-12.9C-153.2,410.3-153.2,407.9-154.7,406.4z M-164.9,413.5h-0.2v5.6h-10.4v-5.6l-0.5,0
		c-2.7,0-4.9-2.2-4.9-4.9c0-1.9,1-3.5,2.6-4.4c-0.1,0.3-0.1,0.7-0.1,1c0,2.4,2,4.4,4.4,4.4c1.1,0,2.1-0.4,2.9-1.1v-0.2
		c-2.3-0.4-4.1-2.3-4.2-4.7v-0.1c0-2.7,2.2-4.9,4.9-4.9c2.7,0,4.9,2.2,4.9,4.9v0.1l0.5,0c2.7,0,4.9,2.2,4.9,4.9
		C-160,411.3-162.2,413.5-164.9,413.5z"/>
	<path class="st0" d="M-98.1,425.9c-0.1-0.1-0.2-0.2-0.3-0.3l-0.6-0.6l0.1-0.1c0.2-0.2,0.4-0.4,0.6-0.6c0.2-0.2,0.3-0.5,0.5-0.7
		l3.2-5.3h-1.9l-3.3,5.6c-0.1,0.2-0.3,0.4-0.5,0.6c-0.2,0.2-0.4,0.3-0.7,0.4l0,0v-6.6h-1.6v14.8h1.6v-7.1h0.3c0.2,0,0.3,0,0.4,0.1
		s0.3,0.2,0.3,0.3l4.1,6.7h2.1l-4.2-6.8C-97.9,426.2-98,426-98.1,425.9z"/>
	<polygon class="st0" points="-101.1,396.1 -101.1,382.9 -95.6,382.9 -95.6,396.1 -93.9,396.1 -93.9,381.4 -102.7,381.4 
		-102.7,396.1 	"/>
</g>
</svg>
