<?xml version="1.0" encoding="iso-8859-1"?>
<!-- Generator: Adobe Illustrator 19.0.0, SVG Export Plug-In . SVG Version: 6.00 Build 0)  -->
<svg version="1.1" id="Layer_1" xmlns="http://www.w3.org/2000/svg" xmlns:xlink="http://www.w3.org/1999/xlink" x="0px" y="0px"
	 viewBox="0 0 512 512" style="enable-background:new 0 0 512 512;" xml:space="preserve">
<g>
	<g>
		<path d="M393.215,47.125c0.438-1.383,0.844-2.781,1.172-4.195c3.422-14.711,2.094-26.031-3.953-33.656
			C387.074,5.047,380.668,0,369.184,0c-0.219,0-0.438,0.016-0.656,0.016V0H140.855v0.055c-10.258,0.539-16.133,5.234-19.297,9.219
			c-6.047,7.625-7.375,18.945-3.953,33.656c0.336,1.414,0.734,2.805,1.18,4.195C74.762,60.258,42.66,101.039,42.66,149.336v277.336
			h64V512h298.68v-85.328h64V149.336C469.34,101.039,437.231,60.258,393.215,47.125z M369.184,21.337
			c1.093-0.001,3.687,0.116,4.531,1.202c0.281,0.344,2.641,3.758-0.109,15.547c-5.359,23.031-34.984,36.898-58.891,44.477
			c-13.219,4.188-26.219,6.945-36.25,8.688C299.824,54.884,347.965,21.337,369.184,21.337z M138.27,22.539
			c0.859-1.086,3.453-1.203,4.531-1.203c21.234,0,69.375,33.555,90.734,69.922c-9.945-1.727-22.797-4.453-35.93-8.594
			c-24.039-7.578-53.836-21.469-59.219-44.578C135.637,26.297,137.988,22.883,138.27,22.539z M106.66,405.344H63.996
			c5.891,0,10.664-4.781,10.664-10.672S69.887,384,63.996,384h42.664V405.344z M245.333,490.671H127.996v-320H106.66v0.001v192
			H63.996V149.336c0-22.797,8.875-44.227,24.992-60.344c11.281-11.281,25.172-19.008,40.305-22.625
			c4.562,5.648,10.289,10.906,17.172,15.742c11.648,8.188,26.695,15.219,44.727,20.906c22.883,7.211,44.586,10.406,54.141,11.562
			V490.671z M209.707,32.492c-4.883-4.062-9.789-7.781-14.656-11.156h121.883c-4.86,3.375-9.766,7.094-14.657,11.156
			c-20.609,17.109-36.891,36.766-46.281,55.562C246.605,69.257,230.324,49.601,209.707,32.492z M447.996,405.344H405.34V384h42.656
			c-5.891,0-10.656,4.781-10.656,10.672S442.106,405.328,447.996,405.344z M447.996,362.673H405.34v-192h-21.344v319.999H266.66V448
			c5.898,0,10.68-4.781,10.68-10.656c0-5.906-4.781-10.672-10.68-10.672V384c5.898,0,10.68-4.781,10.68-10.656
			c0-5.906-4.781-10.672-10.68-10.672V320c5.898,0,10.68-4.781,10.68-10.656c0-5.906-4.781-10.672-10.68-10.672V256
			c5.898,0,10.68-4.773,10.68-10.664s-4.781-10.664-10.68-10.664V192c5.898,0,10.68-4.773,10.68-10.664s-4.781-10.664-10.68-10.664
			v-56.094c9.555-1.156,31.258-4.352,54.148-11.562c18.031-5.688,33.062-12.719,44.719-20.906
			c6.875-4.836,12.625-10.094,17.172-15.742c15.141,3.617,29.016,11.344,40.297,22.625c16.125,16.117,25,37.547,25,60.344V362.673z"
			/>
	</g>
</g>
<g>
</g>
<g>
</g>
<g>
</g>
<g>
</g>
<g>
</g>
<g>
</g>
<g>
</g>
<g>
</g>
<g>
</g>
<g>
</g>
<g>
</g>
<g>
</g>
<g>
</g>
<g>
</g>
<g>
</g>
</svg>
