<?xml version="1.0" encoding="UTF-8"?>
<!DOCTYPE svg PUBLIC "-//W3C//DTD SVG 1.1//EN" "http://www.w3.org/Graphics/SVG/1.1/DTD/svg11.dtd">
<!-- Creator: CorelDRAW X7 -->
<svg xmlns="http://www.w3.org/2000/svg" xml:space="preserve" width="72.8622mm" height="40.2476mm" version="1.1" style="shape-rendering:geometricPrecision; text-rendering:geometricPrecision; image-rendering:optimizeQuality; fill-rule:evenodd; clip-rule:evenodd"
viewBox="0 0 7286 4025"
 xmlns:xlink="http://www.w3.org/1999/xlink">
 <defs>
  <style type="text/css">
   <![CDATA[
    .fil0 {fill:#2F408F}
    .fil1 {fill:#ABDDF6}
    .fil4 {fill:#06823D;fill-rule:nonzero}
    .fil6 {fill:#2F408F;fill-rule:nonzero}
    .fil3 {fill:#A53C8D;fill-rule:nonzero}
    .fil2 {fill:#E31E24;fill-rule:nonzero}
    .fil5 {fill:#EF7F1A;fill-rule:nonzero}
   ]]>
  </style>
 </defs>
 <g id="Слой_x0020_1">
  <metadata id="CorelCorpID_0Corel-Layer"/>
  <path class="fil0" d="M3643 0c2012,0 3643,901 3643,2012 0,1112 -1631,2013 -3643,2013 -2012,0 -3643,-901 -3643,-2013 0,-1111 1631,-2012 3643,-2012zm0 204c1899,0 3439,810 3439,1808 0,999 -1540,1809 -3439,1809 -1899,0 -3439,-810 -3439,-1809 0,-998 1540,-1808 3439,-1808z"/>
  <path class="fil1" d="M3643 204c1899,0 3439,810 3439,1808 0,999 -1540,1809 -3439,1809 -1899,0 -3439,-810 -3439,-1809 0,-998 1540,-1808 3439,-1808z"/>
  <path class="fil2" d="M3291 2813c15,2 26,6 33,15 7,8 12,23 17,44 19,87 23,185 36,274 2,21 6,31 9,31 3,0 13,-22 30,-65 14,-35 49,-131 57,-171 3,-12 3,-27 2,-46 -3,-24 -8,-38 15,-53 22,-18 45,-20 67,-4 13,9 23,21 29,37 28,76 -95,351 -87,354 0,0 158,22 189,33 40,13 64,26 73,39 8,11 11,24 10,37 -1,14 -7,26 -17,36 -11,11 -21,16 -31,16 -10,0 -29,-6 -57,-18 -75,-29 -175,-19 -255,-20l1 21c1,37 33,161 -46,161 -11,0 -23,-5 -35,-16 -11,-11 -17,-21 -17,-32 0,-56 -61,-463 -78,-564 -4,-22 -9,-24 -13,-41 -9,-38 32,-71 68,-68z"/>
  <path class="fil3" d="M3833 2996c10,-1 22,5 34,16 7,8 12,16 14,26 18,91 7,183 35,294 7,27 10,53 9,78 -1,25 -9,43 -23,55 -21,18 -41,21 -58,9 -17,-12 -26,-35 -29,-69 0,-18 -6,-54 -17,-109 -13,-63 -17,-123 -20,-185 -3,-41 -7,-113 55,-115zm-12 -173c57,1 75,81 14,98 -71,21 -92,-100 -14,-98z"/>
  <path class="fil4" d="M4436 2724c10,36 11,124 18,190 3,25 7,50 10,76 6,59 19,170 31,264 13,93 28,166 27,173 -3,20 -25,32 -43,36 -59,15 -45,-93 -83,-38 -18,27 -44,72 -48,78 -43,51 -140,55 -194,22 -137,-86 -97,-395 -14,-510 27,-38 36,-45 81,-45 28,0 53,2 73,5l30 7 0 -125c0,-63 1,-100 2,-113 7,-61 94,-78 110,-20zm-136 379c-135,-117 -129,267 -102,309 18,29 67,23 82,-4 43,-95 46,-208 20,-305z"/>
  <path class="fil5" d="M4989 2863c20,31 27,53 15,89 -18,53 -94,56 -111,1 -22,-74 -115,-10 -5,105 36,38 61,73 76,104 46,102 -13,190 -119,213 -36,8 -69,5 -100,-9 -34,-16 -115,-111 -113,-154 2,-28 29,-57 56,-54 38,3 74,62 95,91 28,38 75,12 83,-9 4,-13 2,-26 -7,-42 -9,-15 -26,-35 -52,-60 -72,-69 -110,-173 -72,-272 36,-92 206,-70 254,-3z"/>
  <path class="fil6" d="M2968 1804c14,-29 10,-54 -5,-69 -29,-29 -57,-29 -101,-29 -180,27 -367,73 -540,131 -51,22 -52,254 14,336 25,32 37,24 72,10 104,-40 253,-150 301,-174 0,83 -110,269 -173,332 -126,125 -303,90 -450,27 -72,-29 -156,-85 -185,-157 -72,-181 -52,-380 0,-562 19,-43 41,-155 121,-282 142,-228 380,-476 485,-266 0,24 -45,162 -58,187 -14,44 -29,72 -43,116 0,29 0,43 43,72 4,4 28,18 44,25 15,7 18,3 31,-8 104,-90 251,-573 271,-695 0,-43 -26,-72 -72,-72 -65,0 -97,76 -115,130 -15,43 -29,86 -43,130 -76,-51 -119,-88 -202,-130 -253,-63 -424,108 -562,303 -87,129 -159,274 -202,432 -51,255 -13,556 150,765 154,197 426,311 616,291 275,-29 445,-455 445,-696 22,-22 158,-122 158,-147zm507 216c19,-18 29,-25 58,-35 159,-53 318,-208 418,-336 28,-51 60,-96 76,-159 171,-511 -656,-743 -847,-332 -193,369 -217,2005 -8,1795 35,-26 49,-77 54,-129 11,-105 -12,-218 -17,-325 -8,-142 -10,-308 -10,-384 0,-230 -57,-682 78,-865 45,-61 106,-99 241,-99 68,0 199,18 280,48 79,30 80,63 40,133 -90,158 -437,370 -543,511 -142,207 332,848 610,848 280,0 131,-92 79,-144 -79,-81 -158,-144 -240,-206 -36,-20 -265,-210 -282,-232 -29,-39 -33,-47 13,-89zm1336 341c-25,51 -22,13 -23,-14 -5,-93 13,-183 13,-275 0,-15 0,-29 0,-44 12,-57 23,-115 35,-172 11,-56 26,-134 4,-189 -23,-58 -80,-93 -153,-65 -57,21 -43,26 -50,81 -16,122 -64,371 -95,403 -58,101 -87,197 -145,269 -14,14 -28,29 -57,43 -15,15 -72,0 -72,-29 -39,-154 241,-756 367,-795 8,-3 16,-2 25,-3 134,-17 -77,-162 -179,-129 -253,84 -548,797 -314,1031 55,65 149,84 235,26 31,-15 139,-142 154,-173 0,0 0,0 14,-14 0,14 0,14 0,29 0,34 0,68 -3,105 -33,420 241,148 326,-27 29,-60 39,-98 75,-164 132,-240 59,-345 -157,106zm492 189c153,0 312,-291 363,-427 7,-18 23,-44 -4,-53 -13,-4 -30,-2 -39,6 -12,10 -118,207 -169,272 -40,50 -122,115 -187,63 -36,-29 -21,-45 -2,-70 218,-277 404,-1290 144,-1490 -48,-18 -157,-35 -178,29 -269,388 -476,2421 67,2376l-5 -29c-55,-94 -136,-626 -136,-747 0,-1 77,70 146,70zm-139 -245c-19,-110 14,-576 38,-661 3,-27 81,-579 164,-579 57,-7 43,307 48,336 0,620 -178,817 -234,898 -4,6 -14,23 -16,6z"/>
 </g>
</svg>
