<?xml version="1.0" encoding="iso-8859-1"?>
<!-- Generator: Adobe Illustrator 18.0.0, SVG Export Plug-In . SVG Version: 6.00 Build 0)  -->
<!DOCTYPE svg PUBLIC "-//W3C//DTD SVG 1.1//EN" "http://www.w3.org/Graphics/SVG/1.1/DTD/svg11.dtd">
<svg version="1.1" id="Capa_1" xmlns="http://www.w3.org/2000/svg" xmlns:xlink="http://www.w3.org/1999/xlink" x="0px" y="0px"
	 viewBox="0 0 370.02 370.02" style="enable-background:new 0 0 370.02 370.02;" xml:space="preserve">
<g>
	<path style="fill:#231F20;" d="M347.448,275.278h-0.932V75.731c0-13.156-7.346-24.903-19.172-30.655
		c-0.255-0.124-0.519-0.23-0.79-0.317l-60.597-19.464c0.78-6.851-1.136-13.443-5.357-18.271c-4.041-4.623-9.729-7.184-15.685-7.015
		H125.102c-5.945-0.173-11.645,2.393-15.686,7.016c-4.236,4.847-6.151,11.471-5.359,18.271L43.465,44.759
		c-0.271,0.087-0.534,0.193-0.79,0.317c-11.826,5.752-19.172,17.499-19.172,30.655v199.547h-0.932c-3.313,0-6,2.686-6,6v35.242
		c0,3.313,2.687,6,6,6h54.163c0.21,8.587,5.131,16.024,12.275,19.817v21.683c0,3.313,2.686,6,6,6h180c3.313,0,6-2.687,6-6v-21.683
		c7.145-3.793,12.065-11.229,12.275-19.817h54.163c3.314,0,6-2.687,6-6v-35.242C353.448,277.964,350.762,275.278,347.448,275.278z
		 M245.2,12.005c2.368-0.077,4.68,0.987,6.367,2.917c2.167,2.479,3.005,5.965,2.343,9.907l-6.993,45.959l-28.28,0.042l22.975-37.181
		c0.018-0.03,0.038-0.062,0.056-0.092c4.117-6.958,4.71-14.858,1.733-21.548C243.4,12.008,245.135,12.007,245.2,12.005z M225.183,12
		c2.882,0,5.376,1.475,6.843,4.048c1.323,2.319,1.556,5.143,0.769,7.972h-95.294c-0.786-2.829-0.553-5.653,0.77-7.973
		c1.467-2.572,3.961-4.047,6.841-4.047C145.113,12,224.926,12,225.183,12z M226.053,36.02l-40.982,65.475L144.242,36.02H226.053z
		 M159.285,82.997l11.7,18.63l-25.535-8.593L159.285,82.997z M210.882,83.105l13.686,9.929l-25.347,8.53L210.882,83.105z
		 M118.451,14.921c1.687-1.93,4.002-2.99,6.367-2.917c0.065,0.002,2.079,0.003,2.079,0.003c-2.977,6.689-2.384,14.59,1.732,21.547
		c0.018,0.031,0.037,0.063,0.056,0.093l22.961,37.182l-28.543-0.043l-7.006-46.052C115.448,20.886,116.284,17.401,118.451,14.921z
		 M28.572,287.278h39.542L55.294,310.52H28.572V287.278z M82.72,113.52c-3.314,0-6,2.687-6,6v111.096H64.962c-3.313,0-6,2.687-6,6
		c0,3.313,2.687,6,6,6H76.72v32.662H35.503V216.43c0.552-0.279,1.081-0.624,1.542-1.085c12.867-12.867,12.867-33.802,0-46.669
		c-0.461-0.461-0.99-0.806-1.542-1.085v-91.86c0-8.392,4.611-15.897,12.062-19.686l58.307-18.729l6.141,40.365
		c0.445,2.928,2.961,5.093,5.923,5.098l21.171,0.032l-10.121,7.342c-1.818,1.319-2.747,3.542-2.408,5.762
		c0.339,2.22,1.889,4.064,4.018,4.781l48.413,16.293v216.03H99.792c-6.105,0-11.072-4.967-11.072-11.072V119.52
		C88.72,116.206,86.033,113.52,82.72,113.52z M269.01,358.02h-168v-13h168V358.02z M270.228,333.02h-79.219V116.989l48.413-16.292
		c2.128-0.716,3.679-2.561,4.018-4.781c0.339-2.22-0.59-4.443-2.408-5.762l-10.121-7.342l21.171-0.032
		c2.962-0.004,5.477-2.169,5.923-5.098l6.142-40.366l58.308,18.729c7.451,3.788,12.062,11.294,12.062,19.686v91.86
		c-0.552,0.279-1.081,0.623-1.542,1.085c-12.867,12.867-12.867,33.802,0,46.669c0.461,0.461,0.99,0.806,1.542,1.085v58.848H293.3
		v-32.662h11.758c3.313,0,6-2.687,6-6c0-3.313-2.687-6-6-6H293.3V119.52c0-3.313-2.687-6-6-6c-3.313,0-6,2.687-6,6v202.428
		C281.3,328.053,276.333,333.02,270.228,333.02z M341.448,310.52h-26.722l-12.819-23.242h39.541V310.52z"/>
	<path style="fill:#231F20;" d="M261.51,245.01h-48c-3.314,0-6,2.687-6,6v50c0,3.314,2.686,6,6,6h48c3.313,0,6-2.686,6-6v-50
		C267.51,247.697,264.823,245.01,261.51,245.01z M255.51,257.01v8h-36v-8H255.51z M219.51,295.01v-18h36v18H219.51z"/>
	<path style="fill:#231F20;" d="M108.51,307.01h48c3.313,0,6-2.686,6-6v-50c0-3.313-2.687-6-6-6h-48c-3.314,0-6,2.687-6,6v50
		C102.51,304.324,105.197,307.01,108.51,307.01z M114.51,295.01v-18h36v18H114.51z M150.51,257.01v8h-36v-8H150.51z"/>
</g>
<g>
</g>
<g>
</g>
<g>
</g>
<g>
</g>
<g>
</g>
<g>
</g>
<g>
</g>
<g>
</g>
<g>
</g>
<g>
</g>
<g>
</g>
<g>
</g>
<g>
</g>
<g>
</g>
<g>
</g>
</svg>
