<?xml version="1.0" encoding="iso-8859-1"?>
<!-- Generator: Adobe Illustrator 19.0.0, SVG Export Plug-In . SVG Version: 6.00 Build 0)  -->
<svg version="1.1" id="Capa_1" xmlns="http://www.w3.org/2000/svg" xmlns:xlink="http://www.w3.org/1999/xlink" x="0px" y="0px"
	 viewBox="0 0 512 512" style="enable-background:new 0 0 512 512;" xml:space="preserve">
<g>
	<g>
		<path d="M256,0C147.153,0,58.6,88.553,58.6,197.4c0,45.142,15.629,89.25,44.019,124.256c0.049,0.068,0.1,0.135,0.152,0.201
			l145.345,186.294C250.01,510.58,252.918,512,256,512c3.08,0,5.988-1.419,7.883-3.847l60.28-77.227
			c3.398-4.354,2.624-10.638-1.73-14.036c-4.353-3.397-10.638-2.624-14.036,1.73l-52.395,67.125L118.827,309.921
			c-0.129-0.182-0.264-0.36-0.406-0.534C92.742,277.88,78.6,238.109,78.6,197.4C78.6,99.582,158.181,20,256,20
			s177.4,79.582,177.401,177.399c0,41.148-14.407,81.248-40.567,112.912c-0.342,0.413-0.646,0.848-0.912,1.301l-38.409,49.208
			c-3.398,4.354-2.624,10.638,1.73,14.036s10.639,2.624,14.036-1.73l39.255-50.292c0.218-0.28,0.42-0.57,0.606-0.867
			c28.553-35.069,44.26-79.247,44.26-124.567C453.4,88.553,364.847,0,256,0z"/>
	</g>
</g>
<g>
	<g>
		<path d="M343.947,389.317c-4.355-3.395-10.639-2.618-14.035,1.738l-0.138,0.177c-3.396,4.355-2.617,10.639,1.738,14.035
			c1.827,1.424,3.992,2.114,6.142,2.114c2.976,0,5.922-1.323,7.893-3.852l0.138-0.177
			C349.081,398.997,348.302,392.713,343.947,389.317z"/>
	</g>
</g>
<g>
	<g>
		<path d="M256.188,63.4H256c-5.523,0-10,4.477-10,10c0,5.523,4.477,10,10,10h0.188c5.523,0,10-4.477,10-10
			C266.188,67.877,261.711,63.4,256.188,63.4z"/>
	</g>
</g>
<g>
	<g>
		<path d="M297.281,69.881c-5.259-1.701-10.893,1.183-12.593,6.437c-1.699,5.255,1.183,10.893,6.437,12.593
			C338.302,104.173,370,147.772,370,197.4c0,62.86-51.14,114-114,114s-114-51.14-114-114c0-48.297,30.589-91.521,76.116-107.557
			c5.209-1.835,7.944-7.545,6.11-12.754s-7.544-7.944-12.754-6.11C157.956,89.828,122,140.632,122,197.4
			c0,73.888,60.112,134,134,134s134-60.112,134-134C390,139.069,352.739,87.823,297.281,69.881z"/>
	</g>
</g>
<g>
	<g>
		<path d="M339.201,239.143l-74.46-134.013c-1.764-3.174-5.11-5.143-8.741-5.143c-3.631,0-6.978,1.969-8.741,5.143l-74.46,134.013
			c-1.973,3.55-1.602,7.94,0.937,11.109c2.539,3.169,6.742,4.489,10.638,3.338L256,232.427l71.626,21.163
			c0.936,0.276,1.889,0.41,2.833,0.41c2.985,0,5.876-1.34,7.805-3.748C340.803,247.083,341.174,242.693,339.201,239.143z
			 M246,214.527l-43.842,12.954L246,148.574V214.527z M266,214.527v-65.953l43.842,78.907L266,214.527z"/>
	</g>
</g>
<g>
</g>
<g>
</g>
<g>
</g>
<g>
</g>
<g>
</g>
<g>
</g>
<g>
</g>
<g>
</g>
<g>
</g>
<g>
</g>
<g>
</g>
<g>
</g>
<g>
</g>
<g>
</g>
<g>
</g>
</svg>
