<?xml version="1.0" encoding="iso-8859-1"?>
<!-- Generator: Adobe Illustrator 19.0.0, SVG Export Plug-In . SVG Version: 6.00 Build 0)  -->
<svg version="1.1" id="Layer_1" xmlns="http://www.w3.org/2000/svg" xmlns:xlink="http://www.w3.org/1999/xlink" x="0px" y="0px"
	 viewBox="0 0 512 512" style="enable-background:new 0 0 512 512;" xml:space="preserve">
<g>
	<g>
		<path d="M398.26,247.83l-15.466-19.332c-4.909-6.135-7.613-13.842-7.613-21.702v-70.513c0-9.136-7.432-16.568-16.568-16.568
			h-0.534V16.568C358.079,7.432,350.647,0,341.512,0h-17.102c-9.136,0-16.568,7.432-16.568,16.568v103.148H204.159V16.568
			C204.159,7.432,196.727,0,187.591,0h-17.102c-9.136,0-16.568,7.432-16.568,16.568v103.148h-0.534
			c-9.136,0-16.568,7.432-16.568,16.568v70.514c0,7.86-2.703,15.566-7.613,21.702l-15.466,19.332
			c-7.175,8.967-11.126,20.232-11.126,31.717v215.883c0,9.136,7.432,16.568,16.568,16.568H222.86c8.27,0,15.331-6.181,16.422-14.378
			l14.983-112.371c0.114-0.866,0.862-1.519,1.735-1.519c0.873,0,1.62,0.653,1.735,1.519l14.982,112.372
			C273.81,505.82,280.871,512,289.139,512h103.679c9.136,0,16.568-7.432,16.568-16.568V279.549
			C409.386,268.064,405.436,256.798,398.26,247.83z M323.875,16.568c0-0.294,0.24-0.534,0.534-0.534h17.102
			c0.294,0,0.534,0.241,0.534,0.534v103.148h-18.171V16.568z M169.954,16.568c0-0.294,0.24-0.534,0.534-0.534h17.102
			c0.294,0,0.534,0.241,0.534,0.534v103.148h-18.171V16.568z M118.647,281.119h26.722v34.739c0,14.441-11.747,26.188-26.188,26.188
			h-0.534V281.119z M223.389,495.504c-0.034,0.264-0.262,0.463-0.529,0.463H119.182c-0.294,0-0.534-0.241-0.534-0.534v-17.637
			H225.75L223.389,495.504z M247.983,369.633c-5.081,2.586-8.816,7.542-9.611,13.499l-10.484,78.63H118.647V358.079h0.534
			c23.281,0,42.221-18.941,42.221-42.221v-34.739h86.58V369.633z M121.813,265.086c1.177-2.574,2.664-5.011,4.447-7.237
			l15.466-19.332c7.175-8.968,11.126-20.233,11.126-31.718v-70.514c0-0.294,0.241-0.534,0.534-0.534h205.228
			c0.294,0,0.534,0.241,0.534,0.534v70.514c0,11.485,3.951,22.75,11.126,31.718l15.466,19.332c1.782,2.228,3.27,4.664,4.447,7.237
			H121.813z M393.353,495.432c0,0.294-0.241,0.534-0.534,0.534H289.139c-0.266,0-0.495-0.2-0.529-0.464l-2.361-17.707h107.104
			V495.432z M393.353,461.762H284.111l-10.483-78.63c-0.795-5.957-4.531-10.913-9.611-13.499v-88.514h86.58v34.739
			c0,23.281,18.941,42.221,42.221,42.221h0.534V461.762z M393.353,342.046h-0.534c-14.441,0-26.188-11.747-26.188-26.188v-34.739
			h26.722V342.046z"/>
	</g>
</g>
<g>
	<g>
		<path d="M179.125,153.921h-0.086c-4.428,0-7.974,3.588-7.974,8.017c0,4.428,3.632,8.017,8.059,8.017
			c4.428,0,8.017-3.588,8.017-8.017C187.142,157.509,183.554,153.921,179.125,153.921z"/>
	</g>
</g>
<g>
	<g>
		<path d="M333.046,153.921h-0.086c-4.428,0-7.974,3.588-7.974,8.017c0,4.428,3.632,8.017,8.059,8.017
			c4.428,0,8.017-3.588,8.017-8.017C341.063,157.509,337.474,153.921,333.046,153.921z"/>
	</g>
</g>
<g>
	<g>
		<path d="M298.756,153.921h-85.511c-4.428,0-8.017,3.588-8.017,8.017v44.075c0,7.76,3.272,14.774,8.976,19.241
			c10.743,8.413,25.977,13.239,41.797,13.239s31.054-4.826,41.797-13.239c5.705-4.468,8.976-11.481,8.976-19.241v-44.075
			C306.772,157.509,303.184,153.921,298.756,153.921z M290.739,206.012c0,2.757-1.057,5.231-2.828,6.619
			c-7.975,6.246-19.606,9.827-31.911,9.827c-12.305,0-23.936-3.583-31.91-9.827c-1.772-1.388-2.829-3.862-2.829-6.619v-36.058
			h69.478V206.012z"/>
	</g>
</g>
<g>
</g>
<g>
</g>
<g>
</g>
<g>
</g>
<g>
</g>
<g>
</g>
<g>
</g>
<g>
</g>
<g>
</g>
<g>
</g>
<g>
</g>
<g>
</g>
<g>
</g>
<g>
</g>
<g>
</g>
</svg>
