<?xml version="1.0" encoding="iso-8859-1"?>
<!-- Generator: Adobe Illustrator 19.0.0, SVG Export Plug-In . SVG Version: 6.00 Build 0)  -->
<svg version="1.1" id="Capa_1" xmlns="http://www.w3.org/2000/svg" xmlns:xlink="http://www.w3.org/1999/xlink" x="0px" y="0px"
	 viewBox="0 0 480 480" style="enable-background:new 0 0 480 480;" xml:space="preserve">
<path id="XMLID_1624_" d="M255,320c0,5.522-4.478,10-10,10h-10c-5.522,0-10-4.478-10-10s4.478-10,10-10h10
	C250.522,310,255,314.478,255,320z M300,110v20c0,22.353-14.903,41.878-36.022,48.011C258.498,185.288,249.79,190,240,190
	s-18.498-4.712-23.978-11.989C194.903,171.878,180,152.353,180,130v-20c0-27.57,22.43-50,50-50h20C277.57,60,300,82.43,300,110z
	 M250,160c0-5.514-4.486-10-10-10s-10,4.486-10,10c0,1.566,0.362,3.051,1.007,4.372c0.091,0.162,0.178,0.327,0.259,0.494
	c1.712,3.061,4.985,5.134,8.734,5.134s7.022-2.073,8.734-5.134c0.081-0.167,0.168-0.332,0.259-0.494
	C249.638,163.051,250,161.566,250,160z M280,110c0-16.542-13.458-30-30-30h-20c-16.542,0-30,13.458-30,30v20
	c0,9.144,4.154,17.499,10.812,23.057C213.952,139.852,225.848,130,240,130s26.048,9.852,29.188,23.057
	C275.846,147.499,280,139.144,280,130V110z M410,320v30c0,16.542-13.458,30-30,30h-10c-3.505,0-6.871-0.604-10-1.714V435
	c0,24.813-20.187,45-45,45s-45-20.187-45-45v-45c0-11.028-8.972-20-20-20h-20c-11.028,0-20,8.972-20,20v45c0,24.813-20.187,45-45,45
	s-45-20.187-45-45v-56.714c-3.129,1.109-6.495,1.714-10,1.714h-10c-16.542,0-30-13.458-30-30v-30c0-0.32,0.015-0.638,0.045-0.95
	l9.957-119.488C80.238,172.193,102.576,150,130,150h10V85c0-12.127,2.604-24.105,7.585-35.088C142.778,44.496,140,37.43,140,30
	c0-16.542,13.458-30,30-30c7.43,0,14.496,2.778,19.912,7.585C200.895,2.604,212.873,0,225,0h30c12.127,0,24.105,2.604,35.088,7.585
	C295.504,2.778,302.57,0,310,0c16.542,0,30,13.458,30,30c0,7.43-2.778,14.496-7.585,19.912C337.396,60.895,340,72.873,340,85v65h10
	c27.424,0,49.762,22.193,49.998,49.562l9.957,119.488C409.985,319.362,410,319.68,410,320z M120,330H90v20c0,5.514,4.486,10,10,10
	h10c5.514,0,10-4.486,10-10V330z M300,310c0-33.084-26.916-60-60-60s-60,26.916-60,60c0,19.603,9.277,37.495,25.046,48.76
	C211.892,353.28,220.57,350,230,350h10h10c9.43,0,18.108,3.28,24.954,8.76C290.725,347.494,300,329.603,300,310z M389.132,310
	l-9.098-109.17c-0.022-0.275-0.034-0.553-0.034-0.83c0-16.542-13.458-30-30-30h-20c-5.522,0-10-4.478-10-10V85
	c0-11.447-3.034-22.719-8.773-32.596c-1.34-2.307-1.703-5.053-1.009-7.628c0.694-2.576,2.39-4.767,4.708-6.087
	C318.056,36.907,320,33.578,320,30c0-5.514-4.486-10-10-10c-3.578,0-6.907,1.944-8.689,5.074c-1.32,2.318-3.511,4.014-6.087,4.708
	c-2.575,0.692-5.32,0.331-7.628-1.009C277.719,23.034,266.447,20,255,20h-30c-11.447,0-22.719,3.034-32.596,8.773
	c-2.307,1.34-5.054,1.7-7.628,1.009c-2.576-0.694-4.767-2.39-6.087-4.708C176.907,21.944,173.578,20,170,20c-5.514,0-10,4.486-10,10
	c0,3.578,1.944,6.907,5.074,8.689c2.318,1.32,4.014,3.511,4.708,6.087c0.694,2.575,0.331,5.321-1.009,7.628
	C163.034,62.281,160,73.553,160,85v75c0,5.522-4.478,10-10,10h-20c-16.542,0-30,13.458-30,30c0,0.277-0.012,0.555-0.034,0.83
	L90.868,310H130c5.522,0,10,4.478,10,10v115c0,13.785,11.215,25,25,25s25-11.215,25-25v-45c0-5.396,1.075-10.549,3.021-15.251
	C172.223,359.722,160,335.99,160,310c0-44.112,35.888-80,80-80s80,35.888,80,80c0,25.99-12.222,49.721-33.021,64.749
	C288.925,379.451,290,384.604,290,390v45c0,13.785,11.215,25,25,25s25-11.215,25-25V320c0-5.522,4.478-10,10-10H389.132z M390,330
	h-30v20c0,5.514,4.486,10,10,10h10c5.514,0,10-4.486,10-10V330z M256,90h-2c-5.522,0-10,4.478-10,10s4.478,10,10,10h2
	c5.522,0,10-4.478,10-10S261.522,90,256,90z M226,90h-2c-5.522,0-10,4.478-10,10s4.478,10,10,10h2c5.522,0,10-4.478,10-10
	S231.522,90,226,90z"/>
<g>
</g>
<g>
</g>
<g>
</g>
<g>
</g>
<g>
</g>
<g>
</g>
<g>
</g>
<g>
</g>
<g>
</g>
<g>
</g>
<g>
</g>
<g>
</g>
<g>
</g>
<g>
</g>
<g>
</g>
</svg>
