<?xml version="1.0" encoding="iso-8859-1"?>
<!-- Generator: Adobe Illustrator 19.0.0, SVG Export Plug-In . SVG Version: 6.00 Build 0)  -->
<svg version="1.1" id="Layer_1" xmlns="http://www.w3.org/2000/svg" xmlns:xlink="http://www.w3.org/1999/xlink" x="0px" y="0px"
	 viewBox="0 0 512.001 512.001" style="enable-background:new 0 0 512.001 512.001;" xml:space="preserve">
<g>
	<g>
		<g>
			<path d="M398.289,302.824c0.003-0.093,0.014-0.184,0.014-0.278c0-0.26-0.013-0.516-0.038-0.769l-0.653-29.255
				c-0.008-0.331-0.041-0.655-0.087-0.975c-0.012-0.086-0.029-0.171-0.044-0.256c-0.044-0.25-0.099-0.495-0.166-0.736
				c-0.021-0.074-0.039-0.15-0.061-0.223c-0.19-0.62-0.452-1.206-0.776-1.751c-0.041-0.069-0.085-0.137-0.128-0.205
				c-0.135-0.211-0.278-0.415-0.43-0.612c-0.047-0.061-0.093-0.125-0.142-0.184c-0.199-0.242-0.41-0.473-0.635-0.691
				c-0.041-0.04-0.086-0.075-0.129-0.114c-0.195-0.18-0.398-0.349-0.61-0.51c-0.069-0.053-0.139-0.103-0.21-0.154
				c-0.245-0.173-0.497-0.335-0.761-0.481c-0.015-0.009-0.028-0.019-0.044-0.028c-23.183-12.591-23.561-38.009-23.565-39.149
				v-96.894c0-0.996-0.184-1.983-0.543-2.912c-2.992-7.746-9.709-12.975-17.479-13.83v-33.31c0-4.465-3.618-8.083-8.083-8.083
				c-4.465,0-8.083,3.618-8.083,8.083v33.168h-21.27V21.296c0-2.829,2.301-5.13,5.13-5.13h11.011c2.829,0,5.13,2.301,5.13,5.13
				V53.64c0,4.465,3.618,8.083,8.083,8.083c4.465,0,8.083-3.618,8.083-8.083V21.296C351.801,9.553,342.248,0,330.505,0h-11.011
				c-11.743,0-21.296,9.553-21.296,21.296v91.378h-84.397V21.296C213.801,9.553,204.249,0,192.506,0h-11.01
				C169.753,0,160.2,9.553,160.2,21.296v91.516c-7.771,0.856-14.489,6.085-17.481,13.831c-0.359,0.929-0.543,1.916-0.543,2.912
				v96.96c-0.004,1.076-0.383,26.494-23.565,39.085c-0.026,0.014-0.047,0.032-0.073,0.046c-0.249,0.139-0.488,0.292-0.72,0.456
				c-0.076,0.054-0.152,0.109-0.225,0.165c-0.207,0.157-0.405,0.322-0.595,0.498c-0.045,0.042-0.095,0.081-0.139,0.124
				c-0.221,0.213-0.427,0.441-0.622,0.678c-0.057,0.07-0.111,0.142-0.166,0.214c-0.143,0.186-0.279,0.379-0.406,0.578
				c-0.049,0.075-0.097,0.15-0.143,0.226c-0.161,0.271-0.31,0.549-0.44,0.839c0,0.001-0.001,0.003-0.002,0.005
				c-0.126,0.285-0.232,0.581-0.324,0.882c-0.027,0.087-0.05,0.176-0.074,0.264c-0.063,0.227-0.113,0.458-0.156,0.692
				c-0.017,0.095-0.037,0.189-0.051,0.283c-0.044,0.308-0.077,0.62-0.084,0.938v0.018c0,0.005-0.001,0.012-0.001,0.017l-0.005,0.248
				l-0.789,29.56c-0.013,0.486,0.025,0.968,0.097,1.442l-4.463,199.966c-0.048,2.175,0.781,4.276,2.302,5.832
				c1.521,1.554,3.604,2.431,5.779,2.431h112.306c3.845,0,7.159-2.709,7.922-6.478l7.286-35.963
				c0.886-4.376-1.942-8.641-6.316-9.527c-4.371-0.884-8.64,1.942-9.527,6.317l-5.974,29.485h-97.431l2.841-127.277
				c16.332-1.126,29.238-6.443,38.418-15.859c13.399-13.742,13.619-31.27,13.599-33.248v-8.824h67.485v66.563
				c-0.753,0.964-1.302,2.104-1.557,3.368l-12.192,60.181c-0.886,4.375,1.942,8.641,6.317,9.527
				c4.386,0.887,8.641-1.942,9.527-6.316l5.99-29.563l18.462,91.135c0.763,3.769,4.076,6.478,7.922,6.478h112.306
				c2.176,0,4.258-0.876,5.779-2.431c1.521-1.555,2.35-3.658,2.302-5.832L398.289,302.824z M383.222,352.2
				c-10.87-1.162-19.316-4.723-25.165-10.637c-9.19-9.294-9.156-21.79-9.155-21.859s0.002-0.138,0.002-0.206v-8.87h33.39
				L383.222,352.2z M314.366,128.839h21.27v5.718h-21.27V128.839z M181.498,16.166h11.01c2.829,0,5.13,2.301,5.13,5.13v91.378
				h-21.269V21.296h-0.001C176.368,18.467,178.669,16.166,181.498,16.166z M176.368,128.839h21.269v5.718h-21.269V128.839z
				 M155.114,341.563c-6.055,6.125-14.901,9.72-26.335,10.746l0.93-41.681h34.559v8.87c0,0.068,0,0.081,0.001,0.15
				C164.272,319.773,164.304,332.269,155.114,341.563z M238.05,294.463H130.07l0.305-13.677H238.05V294.463z M144.626,264.619
				c13.126-16.404,13.706-35.291,13.719-38.033c0-0.012,0-0.125,0-0.137v-95.083c0.492-0.802,1.134-1.441,1.858-1.878v13.151
				c0,4.465,3.618,8.083,8.083,8.083h37.435c4.465,0,8.083-3.618,8.083-8.083v-13.801h84.397v13.801
				c0,4.465,3.618,8.083,8.083,8.083h37.436c4.465,0,8.083-3.618,8.083-8.083v-13.151c0.724,0.438,1.364,1.077,1.857,1.878v95.083
				c0,0.012,0,0.125,0,0.137c0.012,2.741,0.594,21.629,13.719,38.033H144.626z M254.216,294.463v-13.677h127.412l0.305,13.677
				H254.216z M288.996,495.835v-0.001l-23.353-115.275c-0.256-1.265-0.805-2.405-1.558-3.37v-66.562h68.654v8.824
				c-0.02,1.975,0.199,19.505,13.598,33.248c8.959,9.189,21.471,14.468,37.249,15.765l2.843,127.371H288.996z"/>
			<path d="M295.268,164h-80.653c-4.465,0-8.083,3.618-8.083,8.083v68.636c0,4.465,3.618,8.083,8.083,8.083h80.653
				c4.465,0,8.083-3.618,8.083-8.083V225.2c0-4.465-3.618-8.083-8.083-8.083c-4.465,0-8.083,3.618-8.083,8.083v7.435h-64.487v-52.47
				h64.487v19.105c0,4.465,3.618,8.083,8.083,8.083c4.465,0,8.083-3.618,8.083-8.083v-27.188
				C303.351,167.617,299.733,164,295.268,164z"/>
		</g>
	</g>
</g>
<g>
</g>
<g>
</g>
<g>
</g>
<g>
</g>
<g>
</g>
<g>
</g>
<g>
</g>
<g>
</g>
<g>
</g>
<g>
</g>
<g>
</g>
<g>
</g>
<g>
</g>
<g>
</g>
<g>
</g>
</svg>
