<?xml version="1.0" encoding="iso-8859-1"?>
<!-- Generator: Adobe Illustrator 19.0.0, SVG Export Plug-In . SVG Version: 6.00 Build 0)  -->
<svg version="1.1" id="Capa_1" xmlns="http://www.w3.org/2000/svg" xmlns:xlink="http://www.w3.org/1999/xlink" x="0px" y="0px"
	 viewBox="0 0 512.001 512.001" style="enable-background:new 0 0 512.001 512.001;" xml:space="preserve">
<g>
	<g>
		<circle cx="357.9" cy="234.46" r="9.215"/>
	</g>
</g>
<g>
	<g>
		<circle cx="389.85" cy="234.46" r="9.215"/>
	</g>
</g>
<g>
	<g>
		<circle cx="421.8" cy="234.46" r="9.215"/>
	</g>
</g>
<g>
	<g>
		<circle cx="357.9" cy="274.41" r="9.215"/>
	</g>
</g>
<g>
	<g>
		<circle cx="389.85" cy="274.41" r="9.215"/>
	</g>
</g>
<g>
	<g>
		<circle cx="421.8" cy="274.41" r="9.215"/>
	</g>
</g>
<g>
	<g>
		<circle cx="357.9" cy="314.36" r="9.215"/>
	</g>
</g>
<g>
	<g>
		<circle cx="389.85" cy="314.36" r="9.215"/>
	</g>
</g>
<g>
	<g>
		<circle cx="421.8" cy="314.36" r="9.215"/>
	</g>
</g>
<g>
	<g>
		<path d="M371.428,116.266c-0.051-0.036-0.097-0.076-0.149-0.11c-0.101-0.067-0.206-0.122-0.309-0.183
			c-4.579-2.949-10.021-4.668-15.86-4.668c-16.2,0-29.38,13.18-29.38,29.38s13.18,29.38,29.38,29.38
			c16.201,0,29.381-13.18,29.381-29.38C384.491,130.519,379.298,121.543,371.428,116.266z M355.11,155.039
			c-7.913,0-14.351-6.438-14.351-14.352c0-7.915,6.438-14.353,14.351-14.353c0.124,0,0.244,0.016,0.367,0.019l-3.832,5.764
			c-2.297,3.456-1.358,8.12,2.098,10.418c1.28,0.85,2.724,1.257,4.153,1.257c2.431,0,4.818-1.178,6.265-3.355l3.907-5.878
			c0.884,1.862,1.394,3.934,1.394,6.128C369.462,148.6,363.024,155.039,355.11,155.039z"/>
	</g>
</g>
<g>
	<g>
		<path d="M430.216,111.305c-16.201,0-29.381,13.18-29.381,29.38s13.18,29.38,29.381,29.38c16.2,0,29.38-13.18,29.38-29.38
			C459.596,124.485,446.416,111.305,430.216,111.305z M430.217,155.038c-5.946-0.002-11.058-3.636-13.233-8.799l8.955,0.919
			c0.261,0.026,0.52,0.04,0.776,0.04c3.805,0,7.069-2.88,7.466-6.748c0.424-4.128-2.58-7.818-6.708-8.242l-8.155-0.836
			c2.634-3.078,6.539-5.038,10.899-5.038c7.913,0,14.351,6.438,14.351,14.352C444.568,148.6,438.13,155.038,430.217,155.038z"/>
	</g>
</g>
<g>
	<g>
		<path d="M499.476,160.569h-9.988v-31.309c0-29.858-24.291-54.149-54.149-54.149h-3.267V61.634h6.611
			c4.151,0,7.514-3.364,7.514-7.514s-3.364-7.514-7.514-7.514h-28.251c-4.15,0-7.514,3.364-7.514,7.514s3.364,7.514,7.514,7.514
			h6.611v13.478h-50.081V54.12c0-4.15-3.364-7.514-7.514-7.514c-4.15,0-7.514,3.364-7.514,7.514v20.992H240.236
			c-4.15,0-7.514,3.364-7.514,7.514s3.364,7.514,7.514,7.514h195.103c21.571,0,39.121,17.549,39.121,39.12v231.082h-13.062v-52.409
			c0-4.15-3.364-7.514-7.514-7.514c-4.15,0-7.514,3.364-7.514,7.514v52.409H333.333V200.753H446.37v55.083
			c0,4.15,3.364,7.514,7.514,7.514c4.15,0,7.514-3.364,7.514-7.514v-57.588c0-6.906-5.618-12.524-12.524-12.524H330.829
			c-6.906,0-12.524,5.618-12.524,12.524v162.096h-17.161V193.754c0-6.906-5.618-12.524-12.524-12.524h-60.604v-16.546
			c0-4.15-3.364-7.514-7.514-7.514c-4.15,0-7.514,3.364-7.514,7.514v16.546h-9.236v-16.546c0-4.15-3.364-7.514-7.514-7.514
			c-4.15,0-7.514,3.364-7.514,7.514v16.546h-9.236v-16.546c0-4.15-3.364-7.514-7.514-7.514c-4.15,0-7.514,3.364-7.514,7.514v16.586
			c-9.82,0.411-19.131,4.266-26.382,10.969c-8.463,7.821-13.317,18.917-13.317,30.441v14.269c0,10.762-8.756,19.518-19.519,19.518
			H92.967h-0.001H64.568h-0.001H35.748V129.261c0-21.571,17.549-39.12,39.121-39.12h113.714c4.15,0,7.514-3.364,7.514-7.514
			c0-4.15-3.364-7.514-7.514-7.514H74.869c-29.858,0-54.149,24.291-54.149,54.149v134.722c0,4.15,3.364,7.514,7.514,7.514h28.82
			v15.856c0,2.761,2.239,5,5,5h9.199v19.358c0,4.15,3.364,7.514,7.514,7.514c4.15,0,7.514-3.364,7.514-7.514v-19.358h9.199
			c2.761,0,5-2.239,5-5v-15.856h4.76c19.05,0,34.547-15.498,34.547-34.547V222.68c0-7.346,3.094-14.418,8.489-19.404
			c4.896-4.526,11.266-7.018,17.933-7.018h119.905v131.52H40.079c-22.1,0-40.079,17.98-40.079,40.079v85.014
			c0,6.906,5.618,12.524,12.524,12.524h464.441c6.906,0,12.524-5.618,12.524-12.524v-85.013v-0.001v-0.001V222.298h9.988
			c6.906,0,12.524-5.618,12.524-12.524v-36.681C512,166.188,506.382,160.569,499.476,160.569z M85.452,277.324h-13.37v-5.828h13.37
			V277.324z M40.079,342.807h246.036v17.536H16.18C19.379,350.19,28.883,342.807,40.079,342.807z M474.46,450.366H15.028v-74.995
			h278.601h32.19h128.065h20.576V450.366z M496.972,207.269h-7.483v-31.671h7.483V207.269z"/>
	</g>
</g>
<g>
</g>
<g>
</g>
<g>
</g>
<g>
</g>
<g>
</g>
<g>
</g>
<g>
</g>
<g>
</g>
<g>
</g>
<g>
</g>
<g>
</g>
<g>
</g>
<g>
</g>
<g>
</g>
<g>
</g>
</svg>
