<?xml version="1.0" encoding="iso-8859-1"?>
<!-- Generator: Adobe Illustrator 19.0.0, SVG Export Plug-In . SVG Version: 6.00 Build 0)  -->
<svg version="1.1" id="Capa_1" xmlns="http://www.w3.org/2000/svg" xmlns:xlink="http://www.w3.org/1999/xlink" x="0px" y="0px"
	 viewBox="0 0 480 480" style="enable-background:new 0 0 480 480;" xml:space="preserve">
<g>
	<g>
		<path d="M480,360V136c-0.026-22.08-17.92-39.974-40-40h-96c-4.418,0-8,3.582-8,8v112c0,4.418,3.582,8,8,8h27.12L240,302.672
			L108.88,224H136c4.418,0,8-3.582,8-8V104c0-4.418-3.582-8-8-8H40c-22.08,0.026-39.974,17.92-40,40v224
			c0.026,22.08,17.92,39.974,40,40h131.056l-16,32H8c-4.418,0-8,3.582-8,8c0,40,42.152,40,56,40h368c13.848,0,56,0,56-40
			c0-4.418-3.582-8-8-8H324.944l-16-32H440C462.08,399.974,479.974,382.08,480,360z M128,208H80
			c-4.418,0.001-7.999,3.584-7.997,8.003c0.001,2.807,1.472,5.407,3.878,6.854l160,96c2.534,1.52,5.699,1.52,8.232,0l160-96
			c3.786-2.277,5.01-7.192,2.734-10.979c-1.445-2.403-4.042-3.874-6.846-3.878h-48v-64h80v192H48V144h80V208z M463.032,448
			c-2.792,9.848-12.448,16-39.032,16H56c-26.584,0-36.24-6.152-39.032-16H463.032z M172.944,432l16-32h102.112l16,32H172.944z
			 M40,384c-13.255,0-24-10.745-24-24V136c0-13.255,10.745-24,24-24h88v16H40c-4.418,0-8,3.582-8,8v208c0,4.418,3.582,8,8,8h400
			c4.418,0,8-3.582,8-8V136c0-4.418-3.582-8-8-8h-88v-16h88c13.255,0,24,10.745,24,24v224c0,13.255-10.745,24-24,24H40z"/>
	</g>
</g>
<g>
	<g>
		<path d="M312,32h-24V8c0-4.418-3.582-8-8-8H168c-4.418,0-8,3.582-8,8v192c0,4.418,3.582,8,8,8h24v24c0,4.418,3.582,8,8,8h112
			c4.418,0,8-3.582,8-8V40C320,35.582,316.418,32,312,32z M272,16v14.528c-6.775-2.42-12.108-7.753-14.528-14.528H272z M176,16
			h14.528c-2.42,6.775-7.753,12.108-14.528,14.528V16z M176,192v-14.528c6.776,2.42,12.108,7.753,14.528,14.528H176z M176,160.8
			V47.2c15.699-3.234,27.966-15.501,31.2-31.2h33.6c3.234,15.699,15.501,27.966,31.2,31.2v113.6
			c-15.699,3.234-27.966,15.501-31.2,31.2h-33.6C203.966,176.301,191.699,164.034,176,160.8z M272,177.472V192h-14.528
			C259.892,185.224,265.225,179.892,272,177.472z M304,224h-96v-16h72c4.418,0,8-3.582,8-8V48h16V224z"/>
	</g>
</g>
<g>
	<g>
		<path d="M224,72c-17.673,0-32,14.327-32,32s14.327,32,32,32c17.673,0,32-14.327,32-32S241.673,72,224,72z M224,120
			c-8.837,0-16-7.163-16-16s7.163-16,16-16s16,7.163,16,16S232.837,120,224,120z"/>
	</g>
</g>
<g>
	<g>
		<rect x="128" width="16" height="64"/>
	</g>
</g>
<g>
	<g>
		<rect x="96" width="16" height="32"/>
	</g>
</g>
<g>
	<g>
		<rect x="336" y="16" width="16" height="64"/>
	</g>
</g>
<g>
	<g>
		<rect x="368" width="16" height="32"/>
	</g>
</g>
<g>
</g>
<g>
</g>
<g>
</g>
<g>
</g>
<g>
</g>
<g>
</g>
<g>
</g>
<g>
</g>
<g>
</g>
<g>
</g>
<g>
</g>
<g>
</g>
<g>
</g>
<g>
</g>
<g>
</g>
</svg>
