<?xml version="1.0" encoding="iso-8859-1"?>
<!-- Generator: Adobe Illustrator 19.0.0, SVG Export Plug-In . SVG Version: 6.00 Build 0)  -->
<svg version="1.1" id="Capa_1" xmlns="http://www.w3.org/2000/svg" xmlns:xlink="http://www.w3.org/1999/xlink" x="0px" y="0px"
	 viewBox="0 0 480 480" style="enable-background:new 0 0 480 480;" xml:space="preserve">
<g>
	<g>
		<g>
			<path d="M240,440c83.909-0.093,151.907-68.091,152-152c0-83.947-68.053-152-152-152S88,204.053,88,288S156.053,440,240,440z
				 M240,152c75.076,0.084,135.916,60.924,136,136c0,75.111-60.889,136-136,136s-136-60.889-136-136S164.889,152,240,152z"/>
			<path d="M316.413,369.851c1.873-1.749,3.686-3.561,5.435-5.435c2.876-3.075,2.876-7.853,0-10.928
				c-5.19-5.545-9.685-11.703-13.384-18.336c-16.641-29.271-16.623-65.146,0.048-94.4c3.686-6.61,8.164-12.746,13.336-18.272
				c2.875-3.075,2.875-7.853,0-10.928c-42.212-45.214-113.085-47.647-158.299-5.435c-45.214,42.212-47.647,113.085-5.435,158.299
				C200.327,409.63,271.2,412.063,316.413,369.851z M239.89,192c24.147-0.014,47.412,9.073,65.158,25.448
				c-1.704,2.096-3.28,4.272-4.8,6.472c-35.39-33.31-91.083-31.624-124.394,3.766c-33.31,35.39-31.624,91.083,3.766,124.394
				c33.885,31.893,86.743,31.893,120.628,0c1.536,2.2,3.112,4.376,4.8,6.472C287.305,374.861,264.1,383.939,240,384
				c-53.019,0.03-96.025-42.926-96.055-95.945C143.914,235.036,186.87,192.03,239.89,192z M280.712,300.024
				c0.048,0.472,0.08,0.944,0.136,1.416c0.472,3.786,1.134,7.545,1.984,11.264c0.144,0.6,0.272,1.2,0.416,1.8
				c0.897,3.667,1.981,7.285,3.248,10.84c0.192,0.552,0.4,1.096,0.608,1.6c1.335,3.6,2.857,7.127,4.56,10.568
				c0.056,0.184,0.096,0.328,0.168,0.456v0c-27.597,28.629-73.177,29.467-101.806,1.87s-29.467-73.177-1.87-101.806
				c27.597-28.629,73.177-29.467,101.806-1.87c0.635,0.612,1.258,1.235,1.87,1.87c-0.072,0.136-0.12,0.28-0.184,0.416
				c-1.685,3.408-3.194,6.901-4.52,10.464c-0.224,0.6-0.448,1.192-0.664,1.792c-1.248,3.522-2.316,7.105-3.2,10.736
				c-0.152,0.624-0.296,1.256-0.44,1.88c-0.8,3.704-1.512,7.44-1.976,11.2c-0.056,0.48-0.088,0.96-0.136,1.448
				C279.773,283.959,279.773,292.033,280.712,300.024z"/>
			<path d="M432,0H48c-4.418,0-8,3.582-8,8v464c0,4.418,3.582,8,8,8h384c4.418,0,8-3.582,8-8V8C440,3.582,436.418,0,432,0z M424,464
				H56V112h368V464z M424,96H56V16h368V96z"/>
			<path d="M376,88c17.673,0,32-14.327,32-32s-14.327-32-32-32c-17.673,0-32,14.327-32,32S358.327,88,376,88z M376,40
				c8.837,0,16,7.163,16,16s-7.163,16-16,16s-16-7.163-16-16S367.163,40,376,40z"/>
			<rect x="248" y="32" width="16" height="16"/>
			<rect x="280" y="32" width="16" height="16"/>
			<rect x="312" y="32" width="16" height="16"/>
			<rect x="248" y="64" width="16" height="16"/>
			<rect x="280" y="64" width="16" height="16"/>
			<rect x="312" y="64" width="16" height="16"/>
			<path d="M80,80h144c4.418,0,8-3.582,8-8V40c0-4.418-3.582-8-8-8H80c-4.418,0-8,3.582-8,8v32C72,76.418,75.582,80,80,80z M88,48
				h128v16H88V48z"/>
		</g>
	</g>
</g>
<g>
</g>
<g>
</g>
<g>
</g>
<g>
</g>
<g>
</g>
<g>
</g>
<g>
</g>
<g>
</g>
<g>
</g>
<g>
</g>
<g>
</g>
<g>
</g>
<g>
</g>
<g>
</g>
<g>
</g>
</svg>
