<?xml version="1.0" encoding="UTF-8"?>
<!DOCTYPE svg PUBLIC "-//W3C//DTD SVG 1.1//EN" "http://www.w3.org/Graphics/SVG/1.1/DTD/svg11.dtd">
<!-- Creator: CorelDRAW X7 -->
<svg xmlns="http://www.w3.org/2000/svg" xml:space="preserve" width="39.9673mm" height="41.3659mm" version="1.1" style="shape-rendering:geometricPrecision; text-rendering:geometricPrecision; image-rendering:optimizeQuality; fill-rule:evenodd; clip-rule:evenodd"
viewBox="0 0 230 238"
 xmlns:xlink="http://www.w3.org/1999/xlink">
 <defs>
  <style type="text/css">
   <![CDATA[
    .fil1 {fill:black}
    .fil0 {fill:black;fill-rule:nonzero}
   ]]>
  </style>
 </defs>
 <g id="Слой_x0020_1">
  <metadata id="CorelCorpID_0Corel-Layer"/>
  <polygon class="fil0" points="50,0 200,231 190,238 40,7 "/>
  <polygon class="fil0" points="200,7 50,238 40,231 190,0 "/>
  <g id="_2416650996560">
   <g>
    <path class="fil1" d="M226 57l-9 0 0 -8c0,-9 -7,-17 -16,-17 -10,0 -17,8 -17,17l0 8 -8 0 0 -8c0,-9 -8,-17 -17,-17 -9,0 -17,8 -17,17l0 8 -8 0 0 -8c0,-9 -8,-17 -17,-17 -9,0 -17,8 -17,17l0 8 -8 0 0 -8c0,-9 -8,-17 -17,-17 -9,0 -16,8 -16,17l0 8 -9 0 0 -8c0,-9 -7,-17 -17,-17 -9,0 -16,8 -16,17l0 8 -9 0 0 -4 -8 0 0 8 0 25 0 9 8 0 0 -4 9 0 0 92c0,9 7,16 16,16 10,0 17,-7 17,-16l0 -5 9 0 0 5c0,9 7,16 16,16 9,0 17,-7 17,-16l0 -5 8 0 0 5c0,9 8,16 17,16 9,0 17,-7 17,-16l0 -5 8 0 0 5c0,9 8,16 17,16 9,0 17,-7 17,-16l0 -5 8 0 0 5c0,9 7,16 17,16 9,0 16,-7 16,-16l0 -92 9 0c2,0 4,-2 4,-5l0 -25c0,-2 -2,-4 -4,-4zm-42 9l0 16 -8 0 0 -16 8 0zm-42 0l0 16 -8 0 0 -16 8 0zm-42 0l0 16 -8 0 0 -16 8 0zm-41 0l0 16 -9 0 0 -16 9 0zm-51 16l0 -16 9 0 0 16 -9 0zm34 101c0,4 -4,8 -9,8 -4,0 -8,-4 -8,-8l0 -97 0 -25 0 -12c0,-5 4,-9 8,-9 5,0 9,4 9,9l0 12 0 25 0 84 0 8 0 5zm8 -13l0 -79 9 0 0 79 -9 0zm34 13c0,4 -4,8 -9,8 -4,0 -8,-4 -8,-8l0 -97 0 -25 0 -12c0,-5 4,-9 8,-9 5,0 9,4 9,9l0 12 0 25 0 97zm8 -13l0 -79 8 0 0 79 -8 0zm33 13c0,4 -3,8 -8,8 -5,0 -8,-4 -8,-8l0 -5 0 -8 0 -84 0 -25 0 -12c0,-5 3,-9 8,-9 5,0 8,4 8,9l0 12 0 25 0 84 0 8 0 5zm9 -13l0 -79 8 0 0 79 -8 0zm33 13c0,4 -4,8 -8,8 -5,0 -9,-4 -9,-8l0 -97 0 -25 0 -12c0,-5 4,-9 9,-9 4,0 8,4 8,9l0 12 0 25 0 84 0 8 0 5zm9 -13l0 -79 8 0 0 79 -8 0zm33 13c0,4 -4,8 -8,8 -5,0 -9,-4 -9,-8l0 -97 0 -25 0 -12c0,-5 4,-9 9,-9 4,0 8,4 8,9l0 12 0 25 0 97zm13 -101l-5 0 0 -16 5 0 0 16z"/>
   </g>
   <g>
   </g>
   <g>
   </g>
   <g>
   </g>
   <g>
   </g>
   <g>
   </g>
   <g>
   </g>
   <g>
   </g>
   <g>
   </g>
   <g>
   </g>
   <g>
   </g>
   <g>
   </g>
   <g>
   </g>
   <g>
   </g>
   <g>
   </g>
   <g>
   </g>
  </g>
 </g>
</svg>
