<?xml version="1.0" encoding="UTF-8"?>
<!DOCTYPE svg PUBLIC "-//W3C//DTD SVG 1.1//EN" "http://www.w3.org/Graphics/SVG/1.1/DTD/svg11.dtd">
<!-- Creator: CorelDRAW X7 -->
<svg xmlns="http://www.w3.org/2000/svg" xml:space="preserve" width="180.622mm" height="136.832mm" version="1.1" style="shape-rendering:geometricPrecision; text-rendering:geometricPrecision; image-rendering:optimizeQuality; fill-rule:evenodd; clip-rule:evenodd"
viewBox="0 0 17497 13255"
 xmlns:xlink="http://www.w3.org/1999/xlink">
 <defs>
  <style type="text/css">
   <![CDATA[
    .fil1 {fill:#292525;fill-rule:nonzero}
    .fil0 {fill:#B3DFF5;fill-rule:nonzero}
   ]]>
  </style>
 </defs>
 <g id="Слой_x0020_1">
  <metadata id="CorelCorpID_0Corel-Layer"/>
  <path class="fil0" d="M1325 13255l-1131 0 0 -10c-112,-32 -194,-134 -194,-256l0 -1855c0,-286 56,-564 167,-825 107,-253 260,-480 454,-675 195,-194 422,-347 674,-454 260,-110 537,-166 822,-167 1,0 3,0 4,0l530 0 0 -812c-650,-583 -1060,-1429 -1060,-2369l0 -1310c-172,-1395 29,-2396 615,-3060 741,-840 1963,-953 3060,-953 244,0 487,5 722,11 224,5 436,10 639,10 147,0 266,119 266,265l0 835c209,54 504,179 748,476 421,515 526,1331 312,2425l0 1301c0,940 -410,1786 -1060,2369l0 812 530 0c1,0 2,0 4,0 285,1 561,57 821,167 253,107 480,260 675,454 194,195 347,422 454,675 13,-206 114,-437 304,-694 15,-31 37,-60 64,-84 385,-333 877,-517 1386,-518 1,0 2,0 3,0l1061 0 0 -182c-248,-88 -481,-205 -696,-348l-2220 0c-147,0 -266,-119 -266,-265l0 -3976c0,0 0,0 0,-1 0,-572 113,-1128 334,-1650 214,-505 519,-959 909,-1349 389,-389 843,-695 1348,-909 513,-217 1057,-329 1618,-333l65 0c494,4 977,92 1437,261 455,168 874,411 1247,722 14,12 26,24 37,38 249,255 480,506 692,754 12,11 23,24 33,38 244,348 433,730 562,1134 134,417 202,853 202,1294l0 0 0 2 0 3975c0,146 -119,265 -266,265l-2220 0c-215,143 -448,260 -696,348l0 182 1061 0c1,0 3,0 4,0 285,1 561,57 821,167 253,107 480,260 675,454 194,195 347,422 454,675 108,256 164,528 167,808l0 1878c-2,68 -30,134 -78,182 -49,49 -118,78 -187,78l-1589 0c-1,0 -1,0 -2,0 -1,0 -1,0 -2,0l-1854 0c0,0 0,0 0,0 -3,0 -5,0 -7,0l-2907 0c-1,0 -1,0 -2,0 -1,0 -1,0 -2,0l-3177 0c-1,0 -1,0 -2,0 -1,0 -1,0 -2,0l-2357 0c-1,0 -1,0 -2,0l0 0 0 0c-1,0 -2,0 -2,0l-1054 0c-2,0 -3,0 -4,0l0 0 -1 0c0,0 -1,0 -2,0l-2406 0c-1,0 -2,0 -2,0 -1,0 -2,0 -2,0l-91 0 -438 0z"/>
  <path class="fil1" d="M16966 12724l-1060 0 0 -1060c0,-470 -205,-893 -530,-1184l0 -937c425,0 824,166 1125,466 300,301 465,700 465,1125l0 1590 0 0zm531 271l0 -1878c-3,-280 -59,-552 -167,-808 -107,-253 -260,-480 -454,-675 -195,-194 -422,-347 -675,-454 -260,-110 -536,-166 -821,-167 -1,0 -3,0 -4,0l-1061 0 0 -182c248,-88 481,-205 696,-348l2220 0c147,0 266,-119 266,-265l0 -3975 0 -2 0 0c0,-441 -68,-877 -202,-1294 -129,-404 -318,-786 -562,-1134 -50,-71 -131,-113 -217,-113 -55,0 -107,17 -152,48 -58,40 -97,101 -109,171 -12,69 3,140 43,198l0 0c437,625 668,1359 668,2123 0,1 0,1 0,1l0 3712 -1342 0c505,-564 812,-1307 812,-2121l0 -1591c0,-758 -267,-1455 -711,-2002 -10,-16 -22,-30 -35,-43 -584,-694 -1459,-1136 -2435,-1136 -1754,0 -3181,1427 -3181,3181l0 262c0,1 0,1 0,2l0 1327c0,814 307,1557 812,2121l-1342 0 0 -3712c0,0 0,0 0,-1 0,-501 98,-987 291,-1443 187,-442 455,-839 795,-1180 342,-341 739,-609 1180,-795 458,-194 944,-292 1445,-292 443,0 875,77 1286,229 396,146 763,358 1090,631 48,40 108,62 170,62 79,0 153,-35 203,-96 46,-54 67,-123 61,-193 -6,-71 -40,-135 -94,-180 -373,-311 -792,-554 -1247,-722 -460,-169 -943,-257 -1437,-261l-65 0c-561,4 -1105,116 -1618,333 -505,214 -959,520 -1348,909 -390,390 -695,844 -909,1349 -221,522 -334,1078 -334,1650 0,1 0,1 0,1l0 3976c0,146 119,265 266,265l2220 0c215,143 448,260 696,348l0 182 -1061 0c-1,0 -2,0 -3,0 -509,1 -1001,185 -1386,518 -110,96 -122,263 -26,374 50,58 123,92 200,92 64,0 125,-24 174,-66 141,-122 302,-218 476,-284 180,-69 370,-104 565,-104l0 937c-325,291 -530,714 -530,1184l0 1060 -1060 0 0 -1590c0,-286 -57,-564 -167,-825 -107,-253 -260,-480 -454,-675 -195,-194 -422,-347 -675,-454 -260,-110 -536,-166 -821,-167 -2,0 -3,0 -4,0l-530 0 0 -812c650,-583 1060,-1429 1060,-2369l0 -1301c214,-1094 109,-1910 -312,-2425 -244,-297 -539,-423 -748,-476l0 -835c0,-146 -119,-265 -266,-265 -203,0 -415,-5 -639,-10 -235,-6 -478,-11 -722,-11 -1097,0 -2319,113 -3060,953 -586,663 -787,1665 -615,3060l0 1310c0,940 410,1786 1060,2369l0 812 -530 0c-1,0 -3,0 -4,0 -285,1 -562,57 -822,167 -252,107 -479,260 -674,454 -194,195 -347,422 -454,675 -111,261 -167,539 -167,825l0 1855c0,146 119,265 265,265 146,0 265,-119 265,-265l0 -1855c1,-425 166,-824 466,-1125 301,-300 700,-466 1125,-466 1,0 1,0 2,0l608 0 1157 3181 -1767 0 0 -795c0,-146 -119,-265 -265,-265 -147,0 -265,119 -265,265l0 795 -266 0c-146,0 -265,120 -265,265 0,147 119,266 265,266l529 0c0,0 1,0 2,0 0,0 1,0 2,0l2406 0c1,0 2,0 2,0l1 0 0 0c1,0 2,0 4,0l1054 0c0,0 1,0 2,0l0 0 0 0c1,0 1,0 2,0l2357 0c1,0 1,0 2,0 1,0 1,0 2,0l3177 0c1,0 1,0 2,0 1,0 1,0 2,0l2907 0c2,0 4,0 7,0 0,0 0,0 0,0l1854 0c1,0 1,0 2,0 1,0 1,0 2,0l1589 0c69,0 138,-29 187,-78 48,-48 76,-114 78,-182zm-6363 -271l0 -1060c0,-339 161,-642 410,-836 10,-7 20,-14 29,-22 175,-127 389,-202 622,-202 335,0 644,157 847,430 50,68 129,107 213,107 84,0 163,-39 213,-107 203,-273 512,-430 847,-430 585,0 1061,475 1061,1060l0 1060 -4242 0zm530 -3181l796 0c146,0 265,-118 265,-265l0 -309c172,29 349,44 530,44 181,0 358,-15 530,-44l0 309c0,147 119,265 265,265l796 0 0 622c-166,-59 -345,-91 -531,-91 -398,0 -771,146 -1060,409 -289,-263 -662,-409 -1060,-409 -186,0 -365,32 -531,91l0 -622zm-1060 -4859l2394 -983 2908 995 0 1136c0,1462 -1189,2651 -2651,2651 -1462,0 -2651,-1189 -2651,-2651l0 -1148 0 0zm2651 -3094c689,0 1318,265 1790,698l-4438 1822c69,-1401 1230,-2520 2648,-2520zm2161 1118c289,406 466,897 487,1427l-2160 -740 1673 -687zm-12023 7105l460 230c0,0 0,0 1,0l4 3c4,1 8,3 12,5 5,2 10,4 15,6 6,2 13,4 19,6 4,1 7,2 10,3 9,2 18,4 27,5 2,0 3,0 4,1 11,1 21,2 31,2 0,0 1,0 1,0 0,0 0,0 0,0 1,0 3,-1 4,-1 11,0 22,-1 32,-2 6,-1 12,-2 18,-4 6,-1 12,-2 18,-4 6,-1 11,-4 17,-6 6,-2 13,-4 19,-7 5,-2 9,-5 14,-7 7,-4 14,-7 20,-12 2,0 3,-1 5,-2l648 -432 648 432c2,1 3,1 4,2 7,5 14,8 21,12 4,2 9,5 14,7 6,3 12,5 19,7 5,2 11,5 16,6 6,2 13,3 19,4 6,1 12,3 17,4 11,1 22,2 33,2 1,0 2,1 4,1l0 0c0,0 0,0 0,0 11,0 21,-1 32,-2 1,-1 2,-1 3,-1 9,-1 18,-3 27,-5 4,-1 7,-2 10,-3 7,-2 13,-4 20,-6 5,-2 10,-4 15,-6 4,-2 8,-4 12,-5l4 -3c0,0 0,0 0,0l471 -235 -1022 2916 -687 0 -1059 -2911zm1114 -811l0 134 -549 367 -777 -389 0 -528c396,230 846,376 1326,416zm-2386 -3170l0 -1237 605 -807c334,167 1019,453 1781,453 811,0 2022,-331 2514,-476l402 804 0 1263c0,1462 -1189,2651 -2651,2651 -1462,0 -2651,-1189 -2651,-2651zm483 -4019c337,-383 918,-774 2662,-774 238,0 478,6 710,11 133,3 261,6 386,8l0 798c0,70 27,138 77,187 49,50 115,78 186,78 0,0 0,0 0,0 14,0 357,11 612,330 205,255 303,645 293,1147l-135 -270c-59,-117 -193,-174 -318,-134 -16,5 -1634,517 -2570,517 -898,0 -1710,-486 -1718,-491 -116,-71 -268,-42 -350,67l-375 500c-27,-885 152,-1535 540,-1974zm3758 7301l-776 389 -549 -367 0 -134c480,-40 929,-186 1326,-416l0 528 -1 0zm2186 895c300,301 465,700 465,1125l0 1590 -1060 0 0 -795c0,-146 -119,-265 -265,-265 -146,0 -265,119 -265,265l0 795 -1722 0 1115 -3181 605 0c1,0 1,0 2,0 424,0 824,166 1125,466z"/>
 </g>
</svg>
