<?xml version="1.0" encoding="UTF-8"?>
<!DOCTYPE svg PUBLIC "-//W3C//DTD SVG 1.1//EN" "http://www.w3.org/Graphics/SVG/1.1/DTD/svg11.dtd">
<!-- Creator: CorelDRAW X7 -->
<svg xmlns="http://www.w3.org/2000/svg" xml:space="preserve" width="36.9376mm" height="44.4039mm" version="1.1" style="shape-rendering:geometricPrecision; text-rendering:geometricPrecision; image-rendering:optimizeQuality; fill-rule:evenodd; clip-rule:evenodd"
viewBox="0 0 319 383"
 xmlns:xlink="http://www.w3.org/1999/xlink">
 <defs>
  <style type="text/css">
   <![CDATA[
    .fil0 {fill:black;fill-rule:nonzero}
   ]]>
  </style>
 </defs>
 <g id="Слой_x0020_1">
  <metadata id="CorelCorpID_0Corel-Layer"/>
  <path class="fil0" d="M9 2l301 0 7 0 0 7 0 301 0 7 -7 0 -301 0 -7 0 0 -7 0 -301 0 -7 7 0zm293 14l-286 0 0 286 286 0 0 -286z"/>
  <polygon class="fil0" points="9,330 310,330 310,348 9,348 "/>
  <polygon class="fil0" points="9,365 310,365 310,383 9,383 "/>
  <path class="fil0" d="M159 0c44,0 84,18 113,47 29,29 47,68 47,112 0,44 -18,84 -47,113 -29,29 -69,47 -113,47 -44,0 -83,-18 -112,-47 -29,-29 -47,-69 -47,-113 0,-44 18,-83 47,-112 29,-29 68,-47 112,-47zm100 60c-25,-26 -61,-42 -100,-42 -39,0 -74,16 -99,42 -26,25 -42,60 -42,99 0,39 16,75 42,100 25,26 60,41 99,41 39,0 75,-15 100,-41 26,-25 41,-61 41,-100 0,-39 -15,-74 -41,-99z"/>
 </g>
</svg>
