<?xml version="1.0" encoding="UTF-8"?>
<!DOCTYPE svg PUBLIC "-//W3C//DTD SVG 1.1//EN" "http://www.w3.org/Graphics/SVG/1.1/DTD/svg11.dtd">
<!-- Creator: CorelDRAW X7 -->
<svg xmlns="http://www.w3.org/2000/svg" xml:space="preserve" width="52.7038mm" height="51.7612mm" version="1.1" style="shape-rendering:geometricPrecision; text-rendering:geometricPrecision; image-rendering:optimizeQuality; fill-rule:evenodd; clip-rule:evenodd"
viewBox="0 0 756 742"
 xmlns:xlink="http://www.w3.org/1999/xlink">
 <defs>
  <style type="text/css">
   <![CDATA[
    .str0 {stroke:black;stroke-width:30.3613;stroke-linecap:round;stroke-linejoin:round;stroke-dasharray:60.722524 91.083786}
    .fil1 {fill:none}
    .fil0 {fill:black}
   ]]>
  </style>
 </defs>
 <g id="Слой_x0020_1">
  <metadata id="CorelCorpID_0Corel-Layer"/>
  <g id="_2416647840800">
   <g>
    <g>
     <path class="fil0" d="M756 486l-58 -431c-4,-31 -31,-55 -62,-55l-368 0c-9,0 -16,7 -16,16 0,8 7,16 16,16l368 0c16,0 29,11 31,27l22 161 -120 0 86 -66c7,-5 9,-15 3,-22 -5,-7 -15,-8 -22,-3l-119 91 -249 0c-9,0 -18,1 -27,2l-121 -93c-7,-5 -17,-4 -22,3 -6,7 -4,17 3,22l98 76c-114,30 -199,134 -199,258 0,9 7,16 16,16l130 0 -45 35c-7,5 -9,15 -3,22 3,4 8,6 12,6 4,0 7,-1 10,-3l78 -60 360 0 78 60c3,2 6,3 10,3 4,0 9,-2 12,-6 6,-7 4,-17 -3,-22l-45 -35 130 0c5,0 9,-2 12,-5 3,-4 4,-8 4,-13zm-280 -234l-98 75 -98 -75 196 0 0 0zm-289 220l-155 0c7,-111 92,-201 200,-217l120 91 -165 126zm52 0l139 -106 139 106 -278 0zm330 0l-165 -126 123 -94 166 0 29 220 -153 0z"/>
    </g>
   </g>
   <g>
   </g>
   <g>
   </g>
   <g>
   </g>
   <g>
   </g>
   <g>
   </g>
   <g>
   </g>
   <g>
   </g>
   <g>
   </g>
   <g>
   </g>
   <g>
   </g>
   <g>
   </g>
   <g>
   </g>
   <g>
   </g>
   <g>
   </g>
   <g>
   </g>
  </g>
  <line class="fil1 str0" x1="289" y1="520" x2="94" y2= "712" />
  <line class="fil1 str0" x1="375" y1="526" x2="375" y2= "727" />
  <line class="fil1 str0" x1="470" y1="520" x2="643" y2= "694" />
 </g>
</svg>
