<?xml version="1.0" encoding="iso-8859-1"?>
<!-- Generator: Adobe Illustrator 19.0.0, SVG Export Plug-In . SVG Version: 6.00 Build 0)  -->
<svg version="1.1" id="Capa_1" xmlns="http://www.w3.org/2000/svg" xmlns:xlink="http://www.w3.org/1999/xlink" x="0px" y="0px"
	 viewBox="0 0 512.006 512.006" style="enable-background:new 0 0 512.006 512.006;" xml:space="preserve">
<g>
	<g>
		<path d="M511.917,393.263l-38.979-292.24c-2.813-21.104-21-37.021-42.292-37.021H181.333c-5.896,0-10.667,4.771-10.667,10.667
			c0,5.896,4.771,10.667,10.667,10.667h249.313c10.646,0,19.75,7.958,21.146,18.51l14.604,109.49h-81.253l58.669-44.865
			c4.688-3.573,5.563-10.271,2-14.948c-3.604-4.698-10.292-5.552-14.958-1.99l-80.818,61.802H181.333
			c-6.132,0-12.19,0.323-18.167,0.921l-82.021-62.723c-4.688-3.563-11.354-2.708-14.958,1.99c-3.562,4.677-2.687,11.375,2,14.948
			l66.811,51.09C57.428,240.117,0,310.719,0,394.669c0,5.896,4.771,10.667,10.667,10.667H98.96l-30.772,23.531
			c-4.687,3.573-5.562,10.271-2,14.948c2.104,2.75,5.271,4.188,8.479,4.188c2.271,0,4.542-0.719,6.479-2.198l52.921-40.469h243.867
			l52.921,40.469c1.938,1.479,4.208,2.198,6.479,2.198c3.208,0,6.375-1.438,8.479-4.188c3.563-4.677,2.688-11.375-2-14.948
			l-30.772-23.531h88.293c3.083,0,6-1.323,8.021-3.635C511.375,399.378,512.313,396.305,511.917,393.263z M322.138,234.67
			L256,285.246l-66.138-50.577H322.138z M126.857,384.003H21.688c4.969-75.233,62.236-136.24,135.658-147.352l81.102,62.018
			L126.857,384.003z M161.964,384.003L256,312.093l94.036,71.91H161.964z M385.143,384.003l-111.59-85.333l83.693-64H469.25
			l19.896,149.333H385.143z"/>
	</g>
</g>
<g>
</g>
<g>
</g>
<g>
</g>
<g>
</g>
<g>
</g>
<g>
</g>
<g>
</g>
<g>
</g>
<g>
</g>
<g>
</g>
<g>
</g>
<g>
</g>
<g>
</g>
<g>
</g>
<g>
</g>
</svg>
