<?xml version="1.0" encoding="UTF-8"?>
<!DOCTYPE svg PUBLIC "-//W3C//DTD SVG 1.1//EN" "http://www.w3.org/Graphics/SVG/1.1/DTD/svg11.dtd">
<!-- Creator: CorelDRAW X7 -->
<svg xmlns="http://www.w3.org/2000/svg" xml:space="preserve" width="44.1169mm" height="40.3649mm" version="1.1" style="shape-rendering:geometricPrecision; text-rendering:geometricPrecision; image-rendering:optimizeQuality; fill-rule:evenodd; clip-rule:evenodd"
viewBox="0 0 313 286"
 xmlns:xlink="http://www.w3.org/1999/xlink">
 <defs>
  <style type="text/css">
   <![CDATA[
    .fil0 {fill:black;fill-rule:nonzero}
   ]]>
  </style>
 </defs>
 <g id="Слой_x0020_1">
  <metadata id="CorelCorpID_0Corel-Layer"/>
  <path class="fil0" d="M163 12l72 132 72 131 6 11 -13 0 -144 0 -143 0 -13 0 6 -11 72 -131 72 -132 6 -12 7 12zm59 139l-66 -120 -65 120 -66 120 131 0 132 0 -66 -120z"/>
  <polygon class="fil0" points="188,61 63,282 50,274 174,53 "/>
  <polygon class="fil0" points="210,106 110,282 97,274 196,98 "/>
  <polygon class="fil0" points="238,152 165,282 151,274 225,144 "/>
 </g>
</svg>
